<svg width="297" height="28" viewBox="0 0 297 28" fill="none" xmlns="http://www.w3.org/2000/svg">
<path d="M25.5764 22.6833L24.2827 20.489H5.69116L15.0014 4.26915L12.5704 0H9.4332C8.75955 0.00152116 8.09837 0.183069 7.51721 0.526093C6.93602 0.869118 6.45571 1.36133 6.12527 1.95244L0.49918 11.9478C0.172054 12.5247 0 13.1776 0 13.842C0 14.5063 0.172054 15.1592 0.49918 15.7361L4.43802 22.73L6.12527 25.7256C6.41447 26.2395 6.81788 26.6789 7.30391 27.0096C7.78994 27.3402 8.34538 27.553 8.92674 27.6315C9.09358 27.6549 9.26185 27.6666 9.43031 27.6664H20.5581C21.2315 27.6668 21.893 27.4874 22.4751 27.1464C23.0572 26.8055 23.5392 26.3153 23.8718 25.7256L25.5475 22.73L25.5764 22.6833Z" fill="url(#paint0_linear_14876_3141)"/>
<path d="M25.6081 22.6833L25.5763 22.7387L23.8977 25.7227C23.5665 26.3123 23.0857 26.8026 22.5045 27.1436C21.9232 27.4846 21.2625 27.664 20.5898 27.6635H9.46202C9.29355 27.6636 9.12529 27.652 8.95845 27.6285C8.37613 27.5508 7.81963 27.3382 7.33255 27.0075C6.84551 26.6769 6.44115 26.2371 6.15119 25.7227L4.46973 22.7299L5.7547 20.4919L5.82126 20.4511L12.0609 16.6628C13.0246 16.0333 13.7453 15.6633 14.4283 15.5467C14.4437 15.5453 14.4592 15.5453 14.4746 15.5467L14.6077 15.5292L14.8392 15.5117H14.9781C15.0894 15.5148 15.2006 15.5235 15.311 15.5379C16.02 15.6341 16.7783 15.9925 17.8143 16.5928L24.2797 20.4657L24.3173 20.489L25.6081 22.6833Z" fill="url(#paint1_linear_14876_3141)"/>
<path d="M29.525 15.7361L25.5803 22.73L25.6122 22.6746L24.3156 20.489L15.0546 4.24875V4.26915L12.6033 0H20.5938C21.2678 0.00190873 21.9292 0.183588 22.5108 0.526548C23.0924 0.869508 23.5733 1.3615 23.9047 1.95244L29.525 11.9478C29.8506 12.5252 30.0219 13.1779 30.0219 13.842C30.0219 14.506 29.8506 15.1587 29.525 15.7361Z" fill="url(#paint2_linear_14876_3141)"/>
<path d="M0.49918 15.7361L4.4467 22.73L4.41487 22.6746L5.70852 20.4803L14.9696 4.24001V4.26041L17.4267 0H9.4332C8.75955 0.00152116 8.09837 0.183069 7.51721 0.526093C6.93602 0.869118 6.45571 1.36133 6.12527 1.95244L0.49918 11.9478C0.172054 12.5247 0 13.1776 0 13.842C0 14.5063 0.172054 15.1592 0.49918 15.7361Z" fill="url(#paint3_linear_14876_3141)"/>
<path d="M38.9796 22.5353L44.9993 5.51699H48.1712L54.1909 22.5353H50.9032L49.8614 19.5047H43.3092L42.2673 22.5353H38.9796ZM46.5968 10.0164L44.3742 16.474H48.8195L46.5968 10.0164ZM57.7055 22.5353L52.5424 8.89734H55.807L59.303 18.5022L62.7296 8.89734H65.9478L60.8542 22.5353H57.7055ZM72.7712 22.8151C68.5111 22.8151 65.617 19.6912 65.617 15.7513C65.617 11.7648 68.6963 8.61759 72.6554 8.61759C76.684 8.61759 79.6244 11.6016 79.6244 15.6347V16.8237H68.6037C69.0436 18.7586 70.5485 20.0409 72.7712 20.0409C74.5308 20.0409 75.8737 19.1083 76.5219 17.6396L79.0919 19.1317C77.9111 21.3464 75.8274 22.8151 72.7712 22.8151ZM72.6554 11.3918C70.7801 11.3918 69.3215 12.5108 68.7658 14.1893H76.4525C75.9894 12.3476 74.6003 11.3918 72.6554 11.3918ZM80.6312 20.9267C80.6312 19.7844 81.349 19.0151 82.5298 19.0151C83.7105 19.0151 84.4051 19.7844 84.4051 20.9267C84.4051 22.0458 83.6874 22.8151 82.5066 22.8151C81.3258 22.8151 80.6312 22.0458 80.6312 20.9267ZM92.0461 22.8151C88.7816 22.8151 85.3781 20.204 85.3781 15.728C85.3781 11.2053 88.6658 8.61759 92.0924 8.61759C93.8751 8.61759 95.4495 9.34029 96.4451 10.5292V8.89734H99.5707V22.5353H96.4451V20.7635C95.4495 22.0457 93.8288 22.8151 92.0461 22.8151ZM92.5554 19.9243C94.8939 19.9243 96.6072 18.036 96.6072 15.6814C96.6072 13.3501 94.8939 11.4851 92.5554 11.4851C90.2402 11.4851 88.4574 13.3268 88.4574 15.6814C88.4574 18.0593 90.2402 19.9243 92.5554 19.9243ZM101.351 22.5353V8.89734H104.5V22.5353H101.351ZM100.958 5.56362C100.958 4.37467 101.722 3.58203 102.926 3.58203C104.153 3.58203 104.893 4.37467 104.893 5.56362C104.893 6.75257 104.153 7.52189 102.926 7.52189C101.652 7.52189 100.958 6.75257 100.958 5.56362Z" fill="white"/>
<rect x="117.893" y="10.7766" width="1.34806" height="6.11331" fill="white"/>
<path d="M135.754 11.4293C135.316 11.4293 134.908 11.3519 134.53 11.1973C134.151 11.0426 133.82 10.8266 133.538 10.5493C133.255 10.2719 133.034 9.94659 132.874 9.57325C132.719 9.19459 132.642 8.78659 132.642 8.34925C132.642 7.90659 132.719 7.49859 132.874 7.12525C133.028 6.75192 133.247 6.42659 133.53 6.14925C133.812 5.87192 134.143 5.65858 134.522 5.50925C134.9 5.35459 135.311 5.27725 135.754 5.27725C136.196 5.27725 136.607 5.35459 136.986 5.50925C137.364 5.66392 137.695 5.87992 137.978 6.15725C138.26 6.42925 138.479 6.75192 138.634 7.12525C138.794 7.49859 138.874 7.90659 138.874 8.34925C138.874 8.78659 138.794 9.19459 138.634 9.57325C138.474 9.94659 138.252 10.2719 137.97 10.5493C137.687 10.8266 137.356 11.0426 136.978 11.1973C136.604 11.3519 136.196 11.4293 135.754 11.4293ZM135.754 10.4373C136.047 10.4373 136.316 10.3866 136.562 10.2853C136.807 10.1786 137.02 10.0319 137.202 9.84525C137.388 9.65859 137.53 9.43725 137.626 9.18125C137.727 8.92525 137.778 8.64792 137.778 8.34925C137.778 8.05059 137.727 7.77592 137.626 7.52525C137.53 7.26925 137.388 7.04792 137.202 6.86125C137.02 6.66925 136.807 6.52259 136.562 6.42125C136.316 6.31992 136.047 6.26925 135.754 6.26925C135.466 6.26925 135.199 6.31992 134.954 6.42125C134.708 6.52259 134.492 6.66925 134.306 6.86125C134.124 7.04792 133.983 7.26925 133.882 7.52525C133.78 7.77592 133.73 8.05059 133.73 8.34925C133.73 8.64792 133.78 8.92525 133.882 9.18125C133.983 9.43725 134.124 9.65859 134.306 9.84525C134.492 10.0319 134.708 10.1786 134.954 10.2853C135.199 10.3866 135.466 10.4373 135.754 10.4373ZM139.753 11.3333V6.98125H140.737V7.83725L140.657 7.68525C140.758 7.42392 140.924 7.22659 141.153 7.09325C141.388 6.95458 141.66 6.88525 141.969 6.88525C142.289 6.88525 142.572 6.95458 142.817 7.09325C143.068 7.23192 143.262 7.42659 143.401 7.67725C143.54 7.92259 143.609 8.20792 143.609 8.53325V11.3333H142.561V8.78125C142.561 8.58925 142.524 8.42392 142.449 8.28525C142.374 8.14659 142.27 8.03992 142.137 7.96525C142.009 7.88525 141.857 7.84525 141.681 7.84525C141.51 7.84525 141.358 7.88525 141.225 7.96525C141.092 8.03992 140.988 8.14659 140.913 8.28525C140.838 8.42392 140.801 8.58925 140.801 8.78125V11.3333H139.753ZM144.711 9.62125V8.70125H148.111V9.62125H144.711ZM151.388 11.4293C150.956 11.4293 150.567 11.3306 150.22 11.1333C149.879 10.9306 149.609 10.6586 149.412 10.3173C149.215 9.97059 149.116 9.58125 149.116 9.14925C149.116 8.71725 149.215 8.33059 149.412 7.98925C149.609 7.64792 149.879 7.37859 150.22 7.18125C150.567 6.98392 150.956 6.88525 151.388 6.88525C151.697 6.88525 151.985 6.94125 152.252 7.05325C152.519 7.15992 152.748 7.30925 152.94 7.50125C153.137 7.68792 153.279 7.91192 153.364 8.17325L152.444 8.57325C152.364 8.35459 152.228 8.17859 152.036 8.04525C151.849 7.91192 151.633 7.84525 151.388 7.84525C151.159 7.84525 150.953 7.90125 150.772 8.01325C150.596 8.12525 150.457 8.27992 150.356 8.47725C150.255 8.67459 150.204 8.90125 150.204 9.15725C150.204 9.41325 150.255 9.63992 150.356 9.83725C150.457 10.0346 150.596 10.1893 150.772 10.3013C150.953 10.4133 151.159 10.4693 151.388 10.4693C151.639 10.4693 151.857 10.4026 152.044 10.2693C152.231 10.1359 152.364 9.95725 152.444 9.73325L153.364 10.1493C153.279 10.3946 153.14 10.6159 152.948 10.8133C152.756 11.0053 152.527 11.1573 152.26 11.2693C151.993 11.3759 151.703 11.4293 151.388 11.4293ZM154.159 11.3333V5.27725H155.207V7.83725L155.063 7.68525C155.165 7.42392 155.33 7.22659 155.559 7.09325C155.794 6.95458 156.066 6.88525 156.375 6.88525C156.695 6.88525 156.978 6.95458 157.223 7.09325C157.474 7.23192 157.669 7.42659 157.807 7.67725C157.946 7.92259 158.015 8.20792 158.015 8.53325V11.3333H156.967V8.78125C156.967 8.58925 156.93 8.42392 156.855 8.28525C156.781 8.14659 156.677 8.03992 156.543 7.96525C156.415 7.88525 156.263 7.84525 156.087 7.84525C155.917 7.84525 155.765 7.88525 155.631 7.96525C155.498 8.03992 155.394 8.14659 155.319 8.28525C155.245 8.42392 155.207 8.58925 155.207 8.78125V11.3333H154.159ZM160.221 11.4293C159.917 11.4293 159.653 11.3786 159.429 11.2773C159.205 11.1759 159.032 11.0319 158.909 10.8453C158.787 10.6533 158.725 10.4319 158.725 10.1813C158.725 9.94125 158.779 9.72792 158.885 9.54125C158.992 9.34925 159.157 9.18925 159.381 9.06125C159.605 8.93325 159.888 8.84259 160.229 8.78925L161.653 8.55725V9.35725L160.429 9.56525C160.221 9.60259 160.067 9.66925 159.965 9.76525C159.864 9.86125 159.813 9.98659 159.813 10.1413C159.813 10.2906 159.869 10.4106 159.981 10.5013C160.099 10.5866 160.243 10.6293 160.413 10.6293C160.632 10.6293 160.824 10.5839 160.989 10.4933C161.16 10.3973 161.291 10.2666 161.381 10.1013C161.477 9.93592 161.525 9.75459 161.525 9.55725V8.43725C161.525 8.25059 161.451 8.09592 161.301 7.97325C161.157 7.84525 160.965 7.78125 160.725 7.78125C160.501 7.78125 160.301 7.84259 160.125 7.96525C159.955 8.08259 159.829 8.23992 159.749 8.43725L158.893 8.02125C158.979 7.79192 159.112 7.59459 159.293 7.42925C159.48 7.25858 159.699 7.12525 159.949 7.02925C160.2 6.93325 160.472 6.88525 160.765 6.88525C161.123 6.88525 161.437 6.95192 161.709 7.08525C161.981 7.21325 162.192 7.39459 162.341 7.62925C162.496 7.85859 162.573 8.12792 162.573 8.43725V11.3333H161.581V10.5893L161.805 10.5733C161.693 10.7599 161.56 10.9173 161.405 11.0453C161.251 11.1679 161.075 11.2639 160.877 11.3333C160.68 11.3973 160.461 11.4293 160.221 11.4293ZM163.542 11.3333V6.98125H164.59V11.3333H163.542ZM163.542 6.49325V5.37325H164.59V6.49325H163.542ZM165.558 11.3333V6.98125H166.542V7.83725L166.462 7.68525C166.563 7.42392 166.728 7.22659 166.958 7.09325C167.192 6.95458 167.464 6.88525 167.774 6.88525C168.094 6.88525 168.376 6.95458 168.622 7.09325C168.872 7.23192 169.067 7.42659 169.206 7.67725C169.344 7.92259 169.414 8.20792 169.414 8.53325V11.3333H168.366V8.78125C168.366 8.58925 168.328 8.42392 168.254 8.28525C168.179 8.14659 168.075 8.03992 167.942 7.96525C167.814 7.88525 167.662 7.84525 167.486 7.84525C167.315 7.84525 167.163 7.88525 167.03 7.96525C166.896 8.03992 166.792 8.14659 166.718 8.28525C166.643 8.42392 166.606 8.58925 166.606 8.78125V11.3333H165.558ZM171.81 11.3333V5.37325H172.658L175.938 9.78925L175.498 9.87725V5.37325H176.586V11.3333H175.73L172.498 6.88525L172.898 6.79725V11.3333H171.81ZM179.715 11.4293C179.267 11.4293 178.875 11.3279 178.539 11.1253C178.203 10.9226 177.942 10.6479 177.755 10.3013C177.569 9.95459 177.475 9.57059 177.475 9.14925C177.475 8.71192 177.569 8.32525 177.755 7.98925C177.947 7.64792 178.206 7.37859 178.531 7.18125C178.862 6.98392 179.23 6.88525 179.635 6.88525C179.977 6.88525 180.275 6.94125 180.531 7.05325C180.793 7.16525 181.014 7.31992 181.195 7.51725C181.377 7.71459 181.515 7.94125 181.611 8.19725C181.707 8.44792 181.755 8.71992 181.755 9.01325C181.755 9.08792 181.75 9.16525 181.739 9.24525C181.734 9.32525 181.721 9.39459 181.699 9.45325H178.339V8.65325H181.107L180.611 9.02925C180.659 8.78392 180.646 8.56525 180.571 8.37325C180.502 8.18125 180.385 8.02925 180.219 7.91725C180.059 7.80525 179.865 7.74925 179.635 7.74925C179.417 7.74925 179.222 7.80525 179.051 7.91725C178.881 8.02392 178.75 8.18392 178.659 8.39725C178.574 8.60525 178.542 8.85859 178.563 9.15725C178.542 9.42392 178.577 9.66125 178.667 9.86925C178.763 10.0719 178.902 10.2293 179.083 10.3413C179.27 10.4533 179.483 10.5093 179.723 10.5093C179.963 10.5093 180.166 10.4586 180.331 10.3573C180.502 10.2559 180.635 10.1199 180.731 9.94925L181.579 10.3653C181.494 10.5733 181.361 10.7573 181.179 10.9173C180.998 11.0773 180.782 11.2026 180.531 11.2933C180.286 11.3839 180.014 11.4293 179.715 11.4293ZM183.646 11.3333L182.15 6.98125H183.254L184.35 10.2853L183.966 10.2773L185.134 6.98125H186.062L187.222 10.2773L186.838 10.2853L187.934 6.98125H189.038L187.542 11.3333H186.606L185.422 7.88525H185.774L184.574 11.3333H183.646ZM192.234 11.3333L190.634 5.37325H191.802L193.058 10.4533H192.754L194.066 5.37325H195.194L196.498 10.4533H196.194L197.45 5.37325H198.618L197.018 11.3333H195.77L194.45 6.38925H194.802L193.482 11.3333H192.234ZM200.997 11.4293C200.549 11.4293 200.157 11.3279 199.821 11.1253C199.485 10.9226 199.223 10.6479 199.037 10.3013C198.85 9.95459 198.757 9.57059 198.757 9.14925C198.757 8.71192 198.85 8.32525 199.037 7.98925C199.229 7.64792 199.487 7.37859 199.813 7.18125C200.143 6.98392 200.511 6.88525 200.917 6.88525C201.258 6.88525 201.557 6.94125 201.813 7.05325C202.074 7.16525 202.295 7.31992 202.477 7.51725C202.658 7.71459 202.797 7.94125 202.893 8.19725C202.989 8.44792 203.037 8.71992 203.037 9.01325C203.037 9.08792 203.031 9.16525 203.021 9.24525C203.015 9.32525 203.002 9.39459 202.981 9.45325H199.621V8.65325H202.389L201.893 9.02925C201.941 8.78392 201.927 8.56525 201.853 8.37325C201.783 8.18125 201.666 8.02925 201.501 7.91725C201.341 7.80525 201.146 7.74925 200.917 7.74925C200.698 7.74925 200.503 7.80525 200.333 7.91725C200.162 8.02392 200.031 8.18392 199.941 8.39725C199.855 8.60525 199.823 8.85859 199.845 9.15725C199.823 9.42392 199.858 9.66125 199.949 9.86925C200.045 10.0719 200.183 10.2293 200.365 10.3413C200.551 10.4533 200.765 10.5093 201.005 10.5093C201.245 10.5093 201.447 10.4586 201.613 10.3573C201.783 10.2559 201.917 10.1199 202.013 9.94925L202.861 10.3653C202.775 10.5733 202.642 10.7573 202.461 10.9173C202.279 11.0773 202.063 11.2026 201.813 11.2933C201.567 11.3839 201.295 11.4293 200.997 11.4293ZM206.207 11.4293C205.892 11.4293 205.602 11.3679 205.335 11.2453C205.074 11.1173 204.866 10.9359 204.711 10.7013L204.815 10.4933V11.3333H203.831V5.27725H204.879V7.84525L204.719 7.62925C204.868 7.39459 205.071 7.21325 205.327 7.08525C205.583 6.95192 205.879 6.88525 206.215 6.88525C206.626 6.88525 206.996 6.98658 207.327 7.18925C207.658 7.39192 207.919 7.66392 208.111 8.00525C208.308 8.34659 208.407 8.73059 208.407 9.15725C208.407 9.57859 208.311 9.96259 208.119 10.3093C207.927 10.6559 207.666 10.9306 207.335 11.1333C207.004 11.3306 206.628 11.4293 206.207 11.4293ZM206.087 10.4693C206.327 10.4693 206.54 10.4133 206.727 10.3013C206.914 10.1893 207.058 10.0346 207.159 9.83725C207.266 9.63992 207.319 9.41325 207.319 9.15725C207.319 8.90125 207.266 8.67725 207.159 8.48525C207.058 8.28792 206.914 8.13325 206.727 8.02125C206.54 7.90392 206.327 7.84525 206.087 7.84525C205.858 7.84525 205.65 7.90125 205.463 8.01325C205.282 8.12525 205.138 8.28259 205.031 8.48525C204.93 8.68259 204.879 8.90659 204.879 9.15725C204.879 9.41325 204.93 9.63992 205.031 9.83725C205.138 10.0346 205.282 10.1893 205.463 10.3013C205.65 10.4133 205.858 10.4693 206.087 10.4693ZM211.062 11.4293C210.737 11.4293 210.427 11.3706 210.134 11.2533C209.846 11.1306 209.598 10.9599 209.39 10.7413C209.187 10.5173 209.049 10.2533 208.974 9.94925L209.926 9.61325C210.022 9.88525 210.169 10.0933 210.366 10.2373C210.563 10.3759 210.795 10.4453 211.062 10.4453C211.275 10.4453 211.459 10.4053 211.614 10.3253C211.774 10.2453 211.899 10.1306 211.99 9.98125C212.081 9.82659 212.126 9.64525 212.126 9.43725C212.126 9.22925 212.081 9.05325 211.99 8.90925C211.905 8.75992 211.782 8.64525 211.622 8.56525C211.462 8.48525 211.273 8.44525 211.054 8.44525C210.953 8.44525 210.846 8.45592 210.734 8.47725C210.627 8.49859 210.531 8.53059 210.446 8.57325L210.198 8.05325L211.742 6.29325H209.31V5.37325H212.966V6.22925L211.414 8.04525L211.43 7.63725C211.787 7.64259 212.099 7.71992 212.366 7.86925C212.633 8.01859 212.841 8.22392 212.99 8.48525C213.139 8.74659 213.214 9.05325 213.214 9.40525C213.214 9.78925 213.121 10.1359 212.934 10.4453C212.747 10.7493 212.491 10.9893 212.166 11.1653C211.841 11.3413 211.473 11.4293 211.062 11.4293ZM216.719 11.3333L215.119 5.37325H216.287L217.543 10.4533H217.239L218.551 5.37325H219.679L220.983 10.4533H220.679L221.935 5.37325H223.103L221.503 11.3333H220.255L218.935 6.38925H219.287L217.967 11.3333H216.719ZM224.675 11.4293C224.371 11.4293 224.107 11.3786 223.883 11.2773C223.659 11.1759 223.485 11.0319 223.363 10.8453C223.24 10.6533 223.179 10.4319 223.179 10.1813C223.179 9.94125 223.232 9.72792 223.339 9.54125C223.445 9.34925 223.611 9.18925 223.835 9.06125C224.059 8.93325 224.341 8.84259 224.683 8.78925L226.107 8.55725V9.35725L224.883 9.56525C224.675 9.60259 224.52 9.66925 224.419 9.76525C224.317 9.86125 224.267 9.98659 224.267 10.1413C224.267 10.2906 224.323 10.4106 224.435 10.5013C224.552 10.5866 224.696 10.6293 224.867 10.6293C225.085 10.6293 225.277 10.5839 225.443 10.4933C225.613 10.3973 225.744 10.2666 225.835 10.1013C225.931 9.93592 225.979 9.75459 225.979 9.55725V8.43725C225.979 8.25059 225.904 8.09592 225.755 7.97325C225.611 7.84525 225.419 7.78125 225.179 7.78125C224.955 7.78125 224.755 7.84259 224.579 7.96525C224.408 8.08259 224.283 8.23992 224.203 8.43725L223.347 8.02125C223.432 7.79192 223.565 7.59459 223.747 7.42925C223.933 7.25858 224.152 7.12525 224.403 7.02925C224.653 6.93325 224.925 6.88525 225.219 6.88525C225.576 6.88525 225.891 6.95192 226.163 7.08525C226.435 7.21325 226.645 7.39459 226.795 7.62925C226.949 7.85859 227.027 8.12792 227.027 8.43725V11.3333H226.035V10.5893L226.259 10.5733C226.147 10.7599 226.013 10.9173 225.859 11.0453C225.704 11.1679 225.528 11.2639 225.331 11.3333C225.133 11.3973 224.915 11.4293 224.675 11.4293ZM227.995 11.3333V5.27725H229.043V11.3333H227.995ZM230.011 11.3333V5.27725H231.059V11.3333H230.011ZM234.09 11.4293C233.642 11.4293 233.25 11.3279 232.914 11.1253C232.578 10.9226 232.317 10.6479 232.13 10.3013C231.944 9.95459 231.85 9.57059 231.85 9.14925C231.85 8.71192 231.944 8.32525 232.13 7.98925C232.322 7.64792 232.581 7.37859 232.906 7.18125C233.237 6.98392 233.605 6.88525 234.01 6.88525C234.352 6.88525 234.65 6.94125 234.906 7.05325C235.168 7.16525 235.389 7.31992 235.57 7.51725C235.752 7.71459 235.89 7.94125 235.986 8.19725C236.082 8.44792 236.13 8.71992 236.13 9.01325C236.13 9.08792 236.125 9.16525 236.114 9.24525C236.109 9.32525 236.096 9.39459 236.074 9.45325H232.714V8.65325H235.482L234.986 9.02925C235.034 8.78392 235.021 8.56525 234.946 8.37325C234.877 8.18125 234.76 8.02925 234.594 7.91725C234.434 7.80525 234.24 7.74925 234.01 7.74925C233.792 7.74925 233.597 7.80525 233.426 7.91725C233.256 8.02392 233.125 8.18392 233.034 8.39725C232.949 8.60525 232.917 8.85859 232.938 9.15725C232.917 9.42392 232.952 9.66125 233.042 9.86925C233.138 10.0719 233.277 10.2293 233.458 10.3413C233.645 10.4533 233.858 10.5093 234.098 10.5093C234.338 10.5093 234.541 10.4586 234.706 10.3573C234.877 10.2559 235.01 10.1199 235.106 9.94925L235.954 10.3653C235.869 10.5733 235.736 10.7573 235.554 10.9173C235.373 11.0773 235.157 11.2026 234.906 11.2933C234.661 11.3839 234.389 11.4293 234.09 11.4293ZM238.909 11.3813C238.418 11.3813 238.037 11.2479 237.765 10.9813C237.498 10.7093 237.365 10.3279 237.365 9.83725V7.91725H236.613V6.98125H236.693C236.906 6.98125 237.072 6.92525 237.189 6.81325C237.306 6.70125 237.365 6.53859 237.365 6.32525V5.98925H238.413V6.98125H239.413V7.91725H238.413V9.78125C238.413 9.92525 238.437 10.0479 238.485 10.1493C238.538 10.2506 238.618 10.3279 238.725 10.3813C238.837 10.4346 238.978 10.4613 239.149 10.4613C239.186 10.4613 239.229 10.4586 239.277 10.4533C239.33 10.4479 239.381 10.4426 239.429 10.4373V11.3333C239.354 11.3439 239.269 11.3546 239.173 11.3653C239.077 11.3759 238.989 11.3813 238.909 11.3813ZM134.615 22.4173C134.283 22.4173 133.982 22.3543 133.712 22.2283C133.441 22.1023 133.212 21.9343 133.026 21.7243C132.839 21.5096 132.706 21.2739 132.627 21.0173L133.131 20.8283C133.252 21.1829 133.441 21.4536 133.698 21.6403C133.954 21.8223 134.26 21.9133 134.615 21.9133C134.839 21.9133 135.035 21.8783 135.203 21.8083C135.375 21.7336 135.508 21.6309 135.602 21.5003C135.695 21.3696 135.742 21.2179 135.742 21.0453C135.742 20.7886 135.672 20.5903 135.532 20.4503C135.392 20.3103 135.191 20.2029 134.93 20.1283L133.992 19.8483C133.623 19.7409 133.338 19.5613 133.138 19.3093C132.942 19.0573 132.844 18.7703 132.844 18.4483C132.844 18.1729 132.911 17.9303 133.047 17.7203C133.182 17.5056 133.366 17.3376 133.6 17.2163C133.838 17.0949 134.106 17.0343 134.405 17.0343C134.717 17.0343 134.997 17.0926 135.245 17.2093C135.497 17.3213 135.709 17.4706 135.882 17.6573C136.054 17.8439 136.178 18.0516 136.253 18.2803L135.763 18.4763C135.651 18.1683 135.476 17.9349 135.238 17.7763C135.004 17.6176 134.729 17.5383 134.412 17.5383C134.211 17.5383 134.034 17.5733 133.88 17.6433C133.73 17.7133 133.614 17.8136 133.53 17.9443C133.446 18.0749 133.404 18.2289 133.404 18.4063C133.404 18.6209 133.471 18.8146 133.607 18.9873C133.742 19.1553 133.95 19.2813 134.23 19.3653L135.056 19.6103C135.466 19.7316 135.777 19.9066 135.987 20.1353C136.197 20.3639 136.302 20.6509 136.302 20.9963C136.302 21.2763 136.229 21.5236 136.085 21.7383C135.945 21.9483 135.746 22.1139 135.49 22.2353C135.238 22.3566 134.946 22.4173 134.615 22.4173ZM138.254 22.4173C138.016 22.4173 137.804 22.3729 137.617 22.2843C137.431 22.1909 137.284 22.0649 137.176 21.9063C137.069 21.7476 137.015 21.5656 137.015 21.3603C137.015 21.1643 137.057 20.9869 137.141 20.8283C137.225 20.6649 137.356 20.5273 137.533 20.4153C137.711 20.3033 137.937 20.2239 138.212 20.1773L139.682 19.9323V20.4083L138.338 20.6323C138.068 20.6789 137.872 20.7653 137.75 20.8913C137.634 21.0173 137.575 21.1666 137.575 21.3393C137.575 21.5073 137.641 21.6496 137.771 21.7663C137.907 21.8829 138.079 21.9413 138.289 21.9413C138.546 21.9413 138.77 21.8876 138.961 21.7803C139.153 21.6683 139.302 21.5189 139.409 21.3323C139.517 21.1456 139.57 20.9379 139.57 20.7093V19.7573C139.57 19.5333 139.489 19.3513 139.325 19.2113C139.162 19.0713 138.95 19.0013 138.688 19.0013C138.46 19.0013 138.259 19.0596 138.086 19.1763C137.914 19.2883 137.785 19.4353 137.701 19.6173L137.225 19.3583C137.295 19.1996 137.405 19.0549 137.554 18.9243C137.708 18.7936 137.883 18.6909 138.079 18.6163C138.275 18.5369 138.478 18.4973 138.688 18.4973C138.964 18.4973 139.206 18.5509 139.416 18.6583C139.631 18.7656 139.797 18.9149 139.913 19.1063C140.035 19.2929 140.095 19.5099 140.095 19.7573V22.3333H139.57V21.5843L139.647 21.6613C139.582 21.8013 139.479 21.9296 139.339 22.0463C139.204 22.1583 139.043 22.2493 138.856 22.3193C138.674 22.3846 138.474 22.4173 138.254 22.4173ZM141.56 22.3333V19.1063H140.811V18.5813H141.56V18.2453C141.56 17.9839 141.618 17.7646 141.735 17.5873C141.852 17.4053 142.006 17.2676 142.197 17.1743C142.388 17.0809 142.594 17.0343 142.813 17.0343C142.86 17.0343 142.913 17.0389 142.974 17.0483C143.035 17.0529 143.084 17.0599 143.121 17.0693V17.5453C143.088 17.5359 143.044 17.5313 142.988 17.5313C142.932 17.5266 142.892 17.5243 142.869 17.5243C142.645 17.5243 142.458 17.5779 142.309 17.6853C142.16 17.7926 142.085 17.9793 142.085 18.2453V18.5813H143.002V19.1063H142.085V22.3333H141.56ZM145.419 22.4173C145.069 22.4173 144.752 22.3333 144.467 22.1653C144.187 21.9926 143.966 21.7569 143.802 21.4583C143.639 21.1596 143.557 20.8213 143.557 20.4433C143.557 20.0653 143.637 19.7316 143.795 19.4423C143.954 19.1483 144.169 18.9173 144.439 18.7493C144.715 18.5813 145.023 18.4973 145.363 18.4973C145.634 18.4973 145.874 18.5486 146.084 18.6513C146.299 18.7493 146.481 18.8846 146.63 19.0573C146.78 19.2253 146.894 19.4166 146.973 19.6313C147.053 19.8413 147.092 20.0583 147.092 20.2823C147.092 20.3289 147.09 20.3826 147.085 20.4433C147.081 20.4993 147.074 20.5576 147.064 20.6183H143.893V20.1283H146.763L146.511 20.3383C146.553 20.0816 146.523 19.8529 146.42 19.6523C146.322 19.4469 146.18 19.2859 145.993 19.1693C145.807 19.0479 145.597 18.9873 145.363 18.9873C145.13 18.9873 144.913 19.0479 144.712 19.1693C144.516 19.2906 144.362 19.4609 144.25 19.6803C144.138 19.8949 144.094 20.1516 144.117 20.4503C144.094 20.7489 144.141 21.0103 144.257 21.2343C144.379 21.4536 144.542 21.6239 144.747 21.7453C144.957 21.8666 145.181 21.9273 145.419 21.9273C145.695 21.9273 145.926 21.8619 146.112 21.7313C146.299 21.6006 146.451 21.4373 146.567 21.2413L147.015 21.4793C146.941 21.6473 146.826 21.8036 146.672 21.9483C146.518 22.0883 146.334 22.2026 146.119 22.2913C145.909 22.3753 145.676 22.4173 145.419 22.4173ZM148.039 23.2433V22.9983C148.179 22.9609 148.282 22.8886 148.347 22.7813C148.412 22.6739 148.445 22.5246 148.445 22.3333H148.179V21.5633H148.739V22.1513C148.739 22.4546 148.681 22.6973 148.564 22.8793C148.447 23.0659 148.272 23.1873 148.039 23.2433ZM151.171 22.3333V17.1183H152.963C153.304 17.1183 153.602 17.1859 153.859 17.3213C154.116 17.4519 154.314 17.6386 154.454 17.8813C154.599 18.1193 154.671 18.3969 154.671 18.7143C154.671 19.0316 154.599 19.3093 154.454 19.5473C154.314 19.7853 154.116 19.9719 153.859 20.1073C153.607 20.2379 153.308 20.3033 152.963 20.3033H151.731V22.3333H151.171ZM151.731 19.7783H152.991C153.215 19.7783 153.411 19.7363 153.579 19.6523C153.747 19.5636 153.878 19.4399 153.971 19.2813C154.064 19.1179 154.111 18.9266 154.111 18.7073C154.111 18.4879 154.064 18.2989 153.971 18.1403C153.878 17.9816 153.747 17.8603 153.579 17.7763C153.411 17.6876 153.215 17.6433 152.991 17.6433H151.731V19.7783ZM155.592 22.3333V18.5813H156.117V19.1973L156.047 19.1063C156.136 18.9289 156.269 18.7889 156.446 18.6863C156.628 18.5836 156.847 18.5323 157.104 18.5323H157.342V19.0573H157.013C156.742 19.0573 156.525 19.1413 156.362 19.3093C156.199 19.4773 156.117 19.7153 156.117 20.0233V22.3333H155.592ZM159.714 22.4173C159.36 22.4173 159.038 22.3333 158.748 22.1653C158.459 21.9926 158.228 21.7593 158.055 21.4653C157.887 21.1666 157.803 20.8283 157.803 20.4503C157.803 20.0769 157.887 19.7433 158.055 19.4493C158.223 19.1553 158.45 18.9243 158.734 18.7563C159.024 18.5836 159.35 18.4973 159.714 18.4973C160.078 18.4973 160.403 18.5813 160.687 18.7493C160.977 18.9173 161.203 19.1483 161.366 19.4423C161.534 19.7363 161.618 20.0723 161.618 20.4503C161.618 20.8329 161.532 21.1736 161.359 21.4723C161.187 21.7663 160.956 21.9973 160.666 22.1653C160.382 22.3333 160.064 22.4173 159.714 22.4173ZM159.714 21.8923C159.966 21.8923 160.193 21.8293 160.393 21.7033C160.599 21.5773 160.76 21.4046 160.876 21.1853C160.998 20.9659 161.058 20.7209 161.058 20.4503C161.058 20.1796 160.998 19.9369 160.876 19.7223C160.76 19.5076 160.599 19.3373 160.393 19.2113C160.193 19.0853 159.966 19.0223 159.714 19.0223C159.462 19.0223 159.234 19.0853 159.028 19.2113C158.828 19.3373 158.667 19.5076 158.545 19.7223C158.424 19.9369 158.363 20.1796 158.363 20.4503C158.363 20.7209 158.424 20.9659 158.545 21.1853C158.667 21.4046 158.828 21.5773 159.028 21.7033C159.234 21.8293 159.462 21.8923 159.714 21.8923ZM162.793 22.3333V19.1063H162.044V18.5813H162.793V18.2453C162.793 17.9839 162.851 17.7646 162.968 17.5873C163.084 17.4053 163.238 17.2676 163.43 17.1743C163.621 17.0809 163.826 17.0343 164.046 17.0343C164.092 17.0343 164.146 17.0389 164.207 17.0483C164.267 17.0529 164.316 17.0599 164.354 17.0693V17.5453C164.321 17.5359 164.277 17.5313 164.221 17.5313C164.165 17.5266 164.125 17.5243 164.102 17.5243C163.878 17.5243 163.691 17.5779 163.542 17.6853C163.392 17.7926 163.318 17.9793 163.318 18.2453V18.5813H164.235V19.1063H163.318V22.3333H162.793ZM166.652 22.4173C166.302 22.4173 165.984 22.3333 165.7 22.1653C165.42 21.9926 165.198 21.7569 165.035 21.4583C164.871 21.1596 164.79 20.8213 164.79 20.4433C164.79 20.0653 164.869 19.7316 165.028 19.4423C165.186 19.1483 165.401 18.9173 165.672 18.7493C165.947 18.5813 166.255 18.4973 166.596 18.4973C166.866 18.4973 167.107 18.5486 167.317 18.6513C167.531 18.7493 167.713 18.8846 167.863 19.0573C168.012 19.2253 168.126 19.4166 168.206 19.6313C168.285 19.8413 168.325 20.0583 168.325 20.2823C168.325 20.3289 168.322 20.3826 168.318 20.4433C168.313 20.4993 168.306 20.5576 168.297 20.6183H165.126V20.1283H167.996L167.744 20.3383C167.786 20.0816 167.755 19.8529 167.653 19.6523C167.555 19.4469 167.412 19.2859 167.226 19.1693C167.039 19.0479 166.829 18.9873 166.596 18.9873C166.362 18.9873 166.145 19.0479 165.945 19.1693C165.749 19.2906 165.595 19.4609 165.483 19.6803C165.371 19.8949 165.326 20.1516 165.35 20.4503C165.326 20.7489 165.373 21.0103 165.49 21.2343C165.611 21.4536 165.774 21.6239 165.98 21.7453C166.19 21.8666 166.414 21.9273 166.652 21.9273C166.927 21.9273 167.158 21.8619 167.345 21.7313C167.531 21.6006 167.683 21.4373 167.8 21.2413L168.248 21.4793C168.173 21.6473 168.059 21.8036 167.905 21.9483C167.751 22.0883 167.566 22.2026 167.352 22.2913C167.142 22.3753 166.908 22.4173 166.652 22.4173ZM170.552 22.4173C170.193 22.4173 169.878 22.3263 169.607 22.1443C169.337 21.9623 169.141 21.7149 169.019 21.4023L169.46 21.1923C169.568 21.4209 169.717 21.6029 169.908 21.7383C170.104 21.8736 170.319 21.9413 170.552 21.9413C170.776 21.9413 170.965 21.8876 171.119 21.7803C171.273 21.6683 171.35 21.5236 171.35 21.3463C171.35 21.2156 171.313 21.1129 171.238 21.0383C171.164 20.9589 171.077 20.8983 170.979 20.8563C170.881 20.8143 170.795 20.7839 170.72 20.7653L170.181 20.6113C169.836 20.5133 169.586 20.3756 169.432 20.1983C169.278 20.0209 169.201 19.8156 169.201 19.5823C169.201 19.3629 169.257 19.1716 169.369 19.0083C169.481 18.8449 169.633 18.7189 169.824 18.6303C170.016 18.5416 170.228 18.4973 170.461 18.4973C170.779 18.4973 171.066 18.5813 171.322 18.7493C171.584 18.9126 171.768 19.1413 171.875 19.4353L171.427 19.6453C171.334 19.4353 171.199 19.2719 171.021 19.1553C170.849 19.0339 170.655 18.9733 170.44 18.9733C170.23 18.9733 170.062 19.0269 169.936 19.1343C169.81 19.2416 169.747 19.3769 169.747 19.5403C169.747 19.6663 169.78 19.7666 169.845 19.8413C169.911 19.9159 169.985 19.9719 170.069 20.0093C170.158 20.0466 170.235 20.0746 170.3 20.0933L170.923 20.2753C171.227 20.3639 171.462 20.5016 171.63 20.6883C171.803 20.8749 171.889 21.0943 171.889 21.3463C171.889 21.5516 171.831 21.7359 171.714 21.8993C171.602 22.0626 171.446 22.1909 171.245 22.2843C171.045 22.3729 170.814 22.4173 170.552 22.4173ZM174.114 22.4173C173.754 22.4173 173.439 22.3263 173.169 22.1443C172.898 21.9623 172.702 21.7149 172.581 21.4023L173.022 21.1923C173.129 21.4209 173.278 21.6029 173.47 21.7383C173.666 21.8736 173.88 21.9413 174.114 21.9413C174.338 21.9413 174.527 21.8876 174.681 21.7803C174.835 21.6683 174.912 21.5236 174.912 21.3463C174.912 21.2156 174.874 21.1129 174.8 21.0383C174.725 20.9589 174.639 20.8983 174.541 20.8563C174.443 20.8143 174.356 20.7839 174.282 20.7653L173.743 20.6113C173.397 20.5133 173.148 20.3756 172.994 20.1983C172.84 20.0209 172.763 19.8156 172.763 19.5823C172.763 19.3629 172.819 19.1716 172.931 19.0083C173.043 18.8449 173.194 18.7189 173.386 18.6303C173.577 18.5416 173.789 18.4973 174.023 18.4973C174.34 18.4973 174.627 18.5813 174.884 18.7493C175.145 18.9126 175.329 19.1413 175.437 19.4353L174.989 19.6453C174.895 19.4353 174.76 19.2719 174.583 19.1553C174.41 19.0339 174.216 18.9733 174.002 18.9733C173.792 18.9733 173.624 19.0269 173.498 19.1343C173.372 19.2416 173.309 19.3769 173.309 19.5403C173.309 19.6663 173.341 19.7666 173.407 19.8413C173.472 19.9159 173.547 19.9719 173.631 20.0093C173.719 20.0466 173.796 20.0746 173.862 20.0933L174.485 20.2753C174.788 20.3639 175.024 20.5016 175.192 20.6883C175.364 20.8749 175.451 21.0943 175.451 21.3463C175.451 21.5516 175.392 21.7359 175.276 21.8993C175.164 22.0626 175.007 22.1909 174.807 22.2843C174.606 22.3729 174.375 22.4173 174.114 22.4173ZM176.373 22.3333V18.5813H176.898V22.3333H176.373ZM176.373 17.8883V17.1183H176.898V17.8883H176.373ZM179.73 22.4173C179.375 22.4173 179.053 22.3333 178.764 22.1653C178.475 21.9926 178.244 21.7593 178.071 21.4653C177.903 21.1666 177.819 20.8283 177.819 20.4503C177.819 20.0769 177.903 19.7433 178.071 19.4493C178.239 19.1553 178.465 18.9243 178.75 18.7563C179.039 18.5836 179.366 18.4973 179.73 18.4973C180.094 18.4973 180.418 18.5813 180.703 18.7493C180.992 18.9173 181.219 19.1483 181.382 19.4423C181.55 19.7363 181.634 20.0723 181.634 20.4503C181.634 20.8329 181.548 21.1736 181.375 21.4723C181.202 21.7663 180.971 21.9973 180.682 22.1653C180.397 22.3333 180.08 22.4173 179.73 22.4173ZM179.73 21.8923C179.982 21.8923 180.208 21.8293 180.409 21.7033C180.614 21.5773 180.775 21.4046 180.892 21.1853C181.013 20.9659 181.074 20.7209 181.074 20.4503C181.074 20.1796 181.013 19.9369 180.892 19.7223C180.775 19.5076 180.614 19.3373 180.409 19.2113C180.208 19.0853 179.982 19.0223 179.73 19.0223C179.478 19.0223 179.249 19.0853 179.044 19.2113C178.843 19.3373 178.682 19.5076 178.561 19.7223C178.44 19.9369 178.379 20.1796 178.379 20.4503C178.379 20.7209 178.44 20.9659 178.561 21.1853C178.682 21.4046 178.843 21.5773 179.044 21.7033C179.249 21.8293 179.478 21.8923 179.73 21.8923ZM182.56 22.3333V18.5813H183.085V19.3093L182.966 19.2813C183.059 19.0386 183.211 18.8473 183.421 18.7073C183.636 18.5673 183.883 18.4973 184.163 18.4973C184.429 18.4973 184.667 18.5579 184.877 18.6793C185.092 18.8006 185.26 18.9686 185.381 19.1833C185.507 19.3933 185.57 19.6313 185.57 19.8973V22.3333H185.045V20.1003C185.045 19.8716 185.003 19.6779 184.919 19.5193C184.84 19.3606 184.725 19.2393 184.576 19.1553C184.431 19.0666 184.263 19.0223 184.072 19.0223C183.881 19.0223 183.71 19.0666 183.561 19.1553C183.412 19.2393 183.295 19.3629 183.211 19.5263C183.127 19.6849 183.085 19.8763 183.085 20.1003V22.3333H182.56ZM187.658 22.4173C187.42 22.4173 187.207 22.3729 187.021 22.2843C186.834 22.1909 186.687 22.0649 186.58 21.9063C186.472 21.7476 186.419 21.5656 186.419 21.3603C186.419 21.1643 186.461 20.9869 186.545 20.8283C186.629 20.6649 186.759 20.5273 186.937 20.4153C187.114 20.3033 187.34 20.2239 187.616 20.1773L189.086 19.9323V20.4083L187.742 20.6323C187.471 20.6789 187.275 20.7653 187.154 20.8913C187.037 21.0173 186.979 21.1666 186.979 21.3393C186.979 21.5073 187.044 21.6496 187.175 21.7663C187.31 21.8829 187.483 21.9413 187.693 21.9413C187.949 21.9413 188.173 21.8876 188.365 21.7803C188.556 21.6683 188.705 21.5189 188.813 21.3323C188.92 21.1456 188.974 20.9379 188.974 20.7093V19.7573C188.974 19.5333 188.892 19.3513 188.729 19.2113C188.565 19.0713 188.353 19.0013 188.092 19.0013C187.863 19.0013 187.662 19.0596 187.49 19.1763C187.317 19.2883 187.189 19.4353 187.105 19.6173L186.629 19.3583C186.699 19.1996 186.808 19.0549 186.958 18.9243C187.112 18.7936 187.287 18.6909 187.483 18.6163C187.679 18.5369 187.882 18.4973 188.092 18.4973C188.367 18.4973 188.61 18.5509 188.82 18.6583C189.034 18.7656 189.2 18.9149 189.317 19.1063C189.438 19.2929 189.499 19.5099 189.499 19.7573V22.3333H188.974V21.5843L189.051 21.6613C188.985 21.8013 188.883 21.9296 188.743 22.0463C188.607 22.1583 188.446 22.2493 188.26 22.3193C188.078 22.3846 187.877 22.4173 187.658 22.4173ZM190.578 22.3333V17.0343H191.103V22.3333H190.578ZM192.199 23.2433V22.9983C192.339 22.9609 192.442 22.8886 192.507 22.7813C192.572 22.6739 192.605 22.5246 192.605 22.3333H192.339V21.5633H192.899V22.1513C192.899 22.4546 192.841 22.6973 192.724 22.8793C192.607 23.0659 192.432 23.1873 192.199 23.2433ZM195.331 22.3333V17.1183H198.551V17.6433H195.891V19.4563H198.341V19.9813H195.891V22.3333H195.331ZM200.195 22.4173C199.957 22.4173 199.744 22.3729 199.558 22.2843C199.371 22.1909 199.224 22.0649 199.117 21.9063C199.009 21.7476 198.956 21.5656 198.956 21.3603C198.956 21.1643 198.998 20.9869 199.082 20.8283C199.166 20.6649 199.296 20.5273 199.474 20.4153C199.651 20.3033 199.877 20.2239 200.153 20.1773L201.623 19.9323V20.4083L200.279 20.6323C200.008 20.6789 199.812 20.7653 199.691 20.8913C199.574 21.0173 199.516 21.1666 199.516 21.3393C199.516 21.5073 199.581 21.6496 199.712 21.7663C199.847 21.8829 200.02 21.9413 200.23 21.9413C200.486 21.9413 200.71 21.8876 200.902 21.7803C201.093 21.6683 201.242 21.5189 201.35 21.3323C201.457 21.1456 201.511 20.9379 201.511 20.7093V19.7573C201.511 19.5333 201.429 19.3513 201.266 19.2113C201.102 19.0713 200.89 19.0013 200.629 19.0013C200.4 19.0013 200.199 19.0596 200.027 19.1763C199.854 19.2883 199.726 19.4353 199.642 19.6173L199.166 19.3583C199.236 19.1996 199.345 19.0549 199.495 18.9243C199.649 18.7936 199.824 18.6909 200.02 18.6163C200.216 18.5369 200.419 18.4973 200.629 18.4973C200.904 18.4973 201.147 18.5509 201.357 18.6583C201.571 18.7656 201.737 18.9149 201.854 19.1063C201.975 19.2929 202.036 19.5099 202.036 19.7573V22.3333H201.511V21.5843L201.588 21.6613C201.522 21.8013 201.42 21.9296 201.28 22.0463C201.144 22.1583 200.983 22.2493 200.797 22.3193C200.615 22.3846 200.414 22.4173 200.195 22.4173ZM204.418 22.4173C204.058 22.4173 203.743 22.3263 203.473 22.1443C203.202 21.9623 203.006 21.7149 202.885 21.4023L203.326 21.1923C203.433 21.4209 203.582 21.6029 203.774 21.7383C203.97 21.8736 204.184 21.9413 204.418 21.9413C204.642 21.9413 204.831 21.8876 204.985 21.7803C205.139 21.6683 205.216 21.5236 205.216 21.3463C205.216 21.2156 205.178 21.1129 205.104 21.0383C205.029 20.9589 204.943 20.8983 204.845 20.8563C204.747 20.8143 204.66 20.7839 204.586 20.7653L204.047 20.6113C203.701 20.5133 203.452 20.3756 203.298 20.1983C203.144 20.0209 203.067 19.8156 203.067 19.5823C203.067 19.3629 203.123 19.1716 203.235 19.0083C203.347 18.8449 203.498 18.7189 203.69 18.6303C203.881 18.5416 204.093 18.4973 204.327 18.4973C204.644 18.4973 204.931 18.5813 205.188 18.7493C205.449 18.9126 205.633 19.1413 205.741 19.4353L205.293 19.6453C205.199 19.4353 205.064 19.2719 204.887 19.1553C204.714 19.0339 204.52 18.9733 204.306 18.9733C204.096 18.9733 203.928 19.0269 203.802 19.1343C203.676 19.2416 203.613 19.3769 203.613 19.5403C203.613 19.6663 203.645 19.7666 203.711 19.8413C203.776 19.9159 203.851 19.9719 203.935 20.0093C204.023 20.0466 204.1 20.0746 204.166 20.0933L204.789 20.2753C205.092 20.3639 205.328 20.5016 205.496 20.6883C205.668 20.8749 205.755 21.0943 205.755 21.3463C205.755 21.5516 205.696 21.7359 205.58 21.8993C205.468 22.0626 205.311 22.1909 205.111 22.2843C204.91 22.3729 204.679 22.4173 204.418 22.4173ZM208.112 22.3753C207.776 22.3753 207.517 22.2773 207.335 22.0813C207.153 21.8853 207.062 21.6053 207.062 21.2413V19.1063H206.369V18.5813H206.544C206.703 18.5813 206.829 18.5299 206.922 18.4273C207.015 18.3199 207.062 18.1869 207.062 18.0283V17.7133H207.587V18.5813H208.413V19.1063H207.587V21.2413C207.587 21.3673 207.606 21.4793 207.643 21.5773C207.68 21.6706 207.743 21.7453 207.832 21.8013C207.925 21.8573 208.049 21.8853 208.203 21.8853C208.24 21.8853 208.285 21.8829 208.336 21.8783C208.387 21.8736 208.432 21.8689 208.469 21.8643V22.3333C208.413 22.3473 208.35 22.3566 208.28 22.3613C208.21 22.3706 208.154 22.3753 208.112 22.3753ZM210.962 22.4173C210.612 22.4173 210.295 22.3333 210.01 22.1653C209.73 21.9926 209.509 21.7569 209.345 21.4583C209.182 21.1596 209.1 20.8213 209.1 20.4433C209.1 20.0653 209.18 19.7316 209.338 19.4423C209.497 19.1483 209.712 18.9173 209.982 18.7493C210.258 18.5813 210.566 18.4973 210.906 18.4973C211.177 18.4973 211.417 18.5486 211.627 18.6513C211.842 18.7493 212.024 18.8846 212.173 19.0573C212.323 19.2253 212.437 19.4166 212.516 19.6313C212.596 19.8413 212.635 20.0583 212.635 20.2823C212.635 20.3289 212.633 20.3826 212.628 20.4433C212.624 20.4993 212.617 20.5576 212.607 20.6183H209.436V20.1283H212.306L212.054 20.3383C212.096 20.0816 212.066 19.8529 211.963 19.6523C211.865 19.4469 211.723 19.2859 211.536 19.1693C211.35 19.0479 211.14 18.9873 210.906 18.9873C210.673 18.9873 210.456 19.0479 210.255 19.1693C210.059 19.2906 209.905 19.4609 209.793 19.6803C209.681 19.8949 209.637 20.1516 209.66 20.4503C209.637 20.7489 209.684 21.0103 209.8 21.2343C209.922 21.4536 210.085 21.6239 210.29 21.7453C210.5 21.8666 210.724 21.9273 210.962 21.9273C211.238 21.9273 211.469 21.8619 211.655 21.7313C211.842 21.6006 211.994 21.4373 212.11 21.2413L212.558 21.4793C212.484 21.6473 212.369 21.8036 212.215 21.9483C212.061 22.0883 211.877 22.2026 211.662 22.2913C211.452 22.3753 211.219 22.4173 210.962 22.4173ZM214.863 22.4173C214.504 22.4173 214.189 22.3263 213.918 22.1443C213.647 21.9623 213.451 21.7149 213.33 21.4023L213.771 21.1923C213.878 21.4209 214.028 21.6029 214.219 21.7383C214.415 21.8736 214.63 21.9413 214.863 21.9413C215.087 21.9413 215.276 21.8876 215.43 21.7803C215.584 21.6683 215.661 21.5236 215.661 21.3463C215.661 21.2156 215.624 21.1129 215.549 21.0383C215.474 20.9589 215.388 20.8983 215.29 20.8563C215.192 20.8143 215.106 20.7839 215.031 20.7653L214.492 20.6113C214.147 20.5133 213.897 20.3756 213.743 20.1983C213.589 20.0209 213.512 19.8156 213.512 19.5823C213.512 19.3629 213.568 19.1716 213.68 19.0083C213.792 18.8449 213.944 18.7189 214.135 18.6303C214.326 18.5416 214.539 18.4973 214.772 18.4973C215.089 18.4973 215.376 18.5813 215.633 18.7493C215.894 18.9126 216.079 19.1413 216.186 19.4353L215.738 19.6453C215.645 19.4353 215.509 19.2719 215.332 19.1553C215.159 19.0339 214.966 18.9733 214.751 18.9733C214.541 18.9733 214.373 19.0269 214.247 19.1343C214.121 19.2416 214.058 19.3769 214.058 19.5403C214.058 19.6663 214.091 19.7666 214.156 19.8413C214.221 19.9159 214.296 19.9719 214.38 20.0093C214.469 20.0466 214.546 20.0746 214.611 20.0933L215.234 20.2753C215.537 20.3639 215.773 20.5016 215.941 20.6883C216.114 20.8749 216.2 21.0943 216.2 21.3463C216.2 21.5516 216.142 21.7359 216.025 21.8993C215.913 22.0626 215.757 22.1909 215.556 22.2843C215.355 22.3729 215.124 22.4173 214.863 22.4173ZM218.557 22.3753C218.221 22.3753 217.962 22.2773 217.78 22.0813C217.598 21.8853 217.507 21.6053 217.507 21.2413V19.1063H216.814V18.5813H216.989C217.148 18.5813 217.274 18.5299 217.367 18.4273C217.461 18.3199 217.507 18.1869 217.507 18.0283V17.7133H218.032V18.5813H218.858V19.1063H218.032V21.2413C218.032 21.3673 218.051 21.4793 218.088 21.5773C218.126 21.6706 218.189 21.7453 218.277 21.8013C218.371 21.8573 218.494 21.8853 218.648 21.8853C218.686 21.8853 218.73 21.8829 218.781 21.8783C218.833 21.8736 218.877 21.8689 218.914 21.8643V22.3333C218.858 22.3473 218.795 22.3566 218.725 22.3613C218.655 22.3706 218.599 22.3753 218.557 22.3753ZM219.857 23.2433V22.9983C219.997 22.9609 220.1 22.8886 220.165 22.7813C220.231 22.6739 220.263 22.5246 220.263 22.3333H219.997V21.5633H220.557V22.1513C220.557 22.4546 220.499 22.6973 220.382 22.8793C220.266 23.0659 220.091 23.1873 219.857 23.2433ZM222.989 22.3333V17.1183H223.479L225.439 19.9603H225.166L227.119 17.1183H227.609V22.3333H227.049V17.8743L227.231 17.9443L225.313 20.7233H225.285L223.374 17.9443L223.549 17.8743V22.3333H222.989ZM230.521 22.4173C230.166 22.4173 229.844 22.3333 229.555 22.1653C229.266 21.9926 229.035 21.7593 228.862 21.4653C228.694 21.1666 228.61 20.8283 228.61 20.4503C228.61 20.0769 228.694 19.7433 228.862 19.4493C229.03 19.1553 229.256 18.9243 229.541 18.7563C229.83 18.5836 230.157 18.4973 230.521 18.4973C230.885 18.4973 231.209 18.5813 231.494 18.7493C231.783 18.9173 232.01 19.1483 232.173 19.4423C232.341 19.7363 232.425 20.0723 232.425 20.4503C232.425 20.8329 232.339 21.1736 232.166 21.4723C231.993 21.7663 231.762 21.9973 231.473 22.1653C231.188 22.3333 230.871 22.4173 230.521 22.4173ZM230.521 21.8923C230.773 21.8923 230.999 21.8293 231.2 21.7033C231.405 21.5773 231.566 21.4046 231.683 21.1853C231.804 20.9659 231.865 20.7209 231.865 20.4503C231.865 20.1796 231.804 19.9369 231.683 19.7223C231.566 19.5076 231.405 19.3373 231.2 19.2113C230.999 19.0853 230.773 19.0223 230.521 19.0223C230.269 19.0223 230.04 19.0853 229.835 19.2113C229.634 19.3373 229.473 19.5076 229.352 19.7223C229.231 19.9369 229.17 20.1796 229.17 20.4503C229.17 20.7209 229.231 20.9659 229.352 21.1853C229.473 21.4046 229.634 21.5773 229.835 21.7033C230.04 21.8293 230.269 21.8923 230.521 21.8923ZM234.653 22.4173C234.294 22.4173 233.979 22.3263 233.708 22.1443C233.437 21.9623 233.241 21.7149 233.12 21.4023L233.561 21.1923C233.668 21.4209 233.818 21.6029 234.009 21.7383C234.205 21.8736 234.42 21.9413 234.653 21.9413C234.877 21.9413 235.066 21.8876 235.22 21.7803C235.374 21.6683 235.451 21.5236 235.451 21.3463C235.451 21.2156 235.414 21.1129 235.339 21.0383C235.264 20.9589 235.178 20.8983 235.08 20.8563C234.982 20.8143 234.896 20.7839 234.821 20.7653L234.282 20.6113C233.937 20.5133 233.687 20.3756 233.533 20.1983C233.379 20.0209 233.302 19.8156 233.302 19.5823C233.302 19.3629 233.358 19.1716 233.47 19.0083C233.582 18.8449 233.734 18.7189 233.925 18.6303C234.116 18.5416 234.329 18.4973 234.562 18.4973C234.879 18.4973 235.166 18.5813 235.423 18.7493C235.684 18.9126 235.869 19.1413 235.976 19.4353L235.528 19.6453C235.435 19.4353 235.299 19.2719 235.122 19.1553C234.949 19.0339 234.756 18.9733 234.541 18.9733C234.331 18.9733 234.163 19.0269 234.037 19.1343C233.911 19.2416 233.848 19.3769 233.848 19.5403C233.848 19.6663 233.881 19.7666 233.946 19.8413C234.011 19.9159 234.086 19.9719 234.17 20.0093C234.259 20.0466 234.336 20.0746 234.401 20.0933L235.024 20.2753C235.327 20.3639 235.563 20.5016 235.731 20.6883C235.904 20.8749 235.99 21.0943 235.99 21.3463C235.99 21.5516 235.932 21.7359 235.815 21.8993C235.703 22.0626 235.547 22.1909 235.346 22.2843C235.145 22.3729 234.914 22.4173 234.653 22.4173ZM238.347 22.3753C238.011 22.3753 237.752 22.2773 237.57 22.0813C237.388 21.8853 237.297 21.6053 237.297 21.2413V19.1063H236.604V18.5813H236.779C236.938 18.5813 237.064 18.5299 237.157 18.4273C237.251 18.3199 237.297 18.1869 237.297 18.0283V17.7133H237.822V18.5813H238.648V19.1063H237.822V21.2413C237.822 21.3673 237.841 21.4793 237.878 21.5773C237.916 21.6706 237.979 21.7453 238.067 21.8013C238.161 21.8573 238.284 21.8853 238.438 21.8853C238.476 21.8853 238.52 21.8829 238.571 21.8783C238.623 21.8736 238.667 21.8689 238.704 21.8643V22.3333C238.648 22.3473 238.585 22.3566 238.515 22.3613C238.445 22.3706 238.389 22.3753 238.347 22.3753ZM243.273 22.4173C242.904 22.4173 242.566 22.3519 242.258 22.2213C241.95 22.0859 241.681 21.8993 241.453 21.6613C241.229 21.4186 241.054 21.1339 240.928 20.8073C240.802 20.4806 240.739 20.1213 240.739 19.7293C240.739 19.3373 240.802 18.9779 240.928 18.6513C241.054 18.3246 241.229 18.0399 241.453 17.7973C241.681 17.5546 241.95 17.3679 242.258 17.2373C242.566 17.1019 242.904 17.0343 243.273 17.0343C243.627 17.0343 243.945 17.0973 244.225 17.2233C244.509 17.3493 244.747 17.5126 244.939 17.7133C245.135 17.9093 245.275 18.1169 245.359 18.3363L244.834 18.5673C244.703 18.2639 244.502 18.0213 244.232 17.8393C243.966 17.6526 243.646 17.5593 243.273 17.5593C242.89 17.5593 242.549 17.6503 242.251 17.8323C241.952 18.0143 241.719 18.2686 241.551 18.5953C241.383 18.9173 241.299 19.2953 241.299 19.7293C241.299 20.1586 241.383 20.5366 241.551 20.8633C241.719 21.1899 241.952 21.4443 242.251 21.6263C242.549 21.8036 242.89 21.8923 243.273 21.8923C243.646 21.8923 243.966 21.8013 244.232 21.6193C244.502 21.4373 244.703 21.1946 244.834 20.8913L245.359 21.1223C245.275 21.3369 245.135 21.5446 244.939 21.7453C244.747 21.9413 244.509 22.1023 244.225 22.2283C243.945 22.3543 243.627 22.4173 243.273 22.4173ZM247.973 22.4173C247.618 22.4173 247.296 22.3333 247.007 22.1653C246.718 21.9926 246.487 21.7593 246.314 21.4653C246.146 21.1666 246.062 20.8283 246.062 20.4503C246.062 20.0769 246.146 19.7433 246.314 19.4493C246.482 19.1553 246.708 18.9243 246.993 18.7563C247.282 18.5836 247.609 18.4973 247.973 18.4973C248.337 18.4973 248.661 18.5813 248.946 18.7493C249.235 18.9173 249.462 19.1483 249.625 19.4423C249.793 19.7363 249.877 20.0723 249.877 20.4503C249.877 20.8329 249.791 21.1736 249.618 21.4723C249.445 21.7663 249.214 21.9973 248.925 22.1653C248.64 22.3333 248.323 22.4173 247.973 22.4173ZM247.973 21.8923C248.225 21.8923 248.451 21.8293 248.652 21.7033C248.857 21.5773 249.018 21.4046 249.135 21.1853C249.256 20.9659 249.317 20.7209 249.317 20.4503C249.317 20.1796 249.256 19.9369 249.135 19.7223C249.018 19.5076 248.857 19.3373 248.652 19.2113C248.451 19.0853 248.225 19.0223 247.973 19.0223C247.721 19.0223 247.492 19.0853 247.287 19.2113C247.086 19.3373 246.925 19.5076 246.804 19.7223C246.683 19.9369 246.622 20.1796 246.622 20.4503C246.622 20.7209 246.683 20.9659 246.804 21.1853C246.925 21.4046 247.086 21.5773 247.287 21.7033C247.492 21.8293 247.721 21.8923 247.973 21.8923ZM250.803 22.3333V18.5813H251.328V19.2953L251.244 19.1903C251.347 18.9709 251.498 18.8006 251.699 18.6793C251.904 18.5579 252.128 18.4973 252.371 18.4973C252.66 18.4973 252.922 18.5789 253.155 18.7423C253.388 18.9056 253.554 19.1179 253.652 19.3793L253.505 19.3863C253.598 19.0969 253.759 18.8776 253.988 18.7283C254.221 18.5743 254.478 18.4973 254.758 18.4973C255.01 18.4973 255.241 18.5579 255.451 18.6793C255.666 18.8006 255.836 18.9686 255.962 19.1833C256.093 19.3933 256.158 19.6313 256.158 19.8973V22.3333H255.633V20.1003C255.633 19.8716 255.591 19.6779 255.507 19.5193C255.428 19.3606 255.318 19.2393 255.178 19.1553C255.038 19.0666 254.877 19.0223 254.695 19.0223C254.518 19.0223 254.357 19.0666 254.212 19.1553C254.067 19.2393 253.953 19.3629 253.869 19.5263C253.785 19.6849 253.743 19.8763 253.743 20.1003V22.3333H253.218V20.1003C253.218 19.8716 253.176 19.6779 253.092 19.5193C253.013 19.3606 252.903 19.2393 252.763 19.1553C252.623 19.0666 252.462 19.0223 252.28 19.0223C252.098 19.0223 251.935 19.0666 251.79 19.1553C251.65 19.2393 251.538 19.3629 251.454 19.5263C251.37 19.6849 251.328 19.8763 251.328 20.1003V22.3333H250.803ZM257.16 23.7333V18.5813H257.685V19.4213L257.601 19.2743C257.751 19.0363 257.949 18.8473 258.196 18.7073C258.448 18.5673 258.735 18.4973 259.057 18.4973C259.412 18.4973 259.727 18.5836 260.002 18.7563C260.282 18.9243 260.502 19.1553 260.66 19.4493C260.824 19.7433 260.905 20.0793 260.905 20.4573C260.905 20.8306 260.824 21.1666 260.66 21.4653C260.502 21.7593 260.282 21.9926 260.002 22.1653C259.727 22.3333 259.412 22.4173 259.057 22.4173C258.735 22.4173 258.444 22.3449 258.182 22.2003C257.926 22.0509 257.732 21.8409 257.601 21.5703L257.685 21.4933V23.7333H257.16ZM259.029 21.8923C259.281 21.8923 259.505 21.8293 259.701 21.7033C259.902 21.5773 260.058 21.4069 260.17 21.1923C260.287 20.9729 260.345 20.7279 260.345 20.4573C260.345 20.1819 260.287 19.9369 260.17 19.7223C260.058 19.5076 259.902 19.3373 259.701 19.2113C259.505 19.0853 259.281 19.0223 259.029 19.0223C258.777 19.0223 258.549 19.0853 258.343 19.2113C258.143 19.3373 257.982 19.5099 257.86 19.7293C257.744 19.9439 257.685 20.1866 257.685 20.4573C257.685 20.7279 257.744 20.9729 257.86 21.1923C257.982 21.4069 258.143 21.5773 258.343 21.7033C258.549 21.8293 258.777 21.8923 259.029 21.8923ZM261.829 22.3333V18.5813H262.354V19.1973L262.284 19.1063C262.373 18.9289 262.506 18.7889 262.683 18.6863C262.865 18.5836 263.085 18.5323 263.341 18.5323H263.579V19.0573H263.25C262.98 19.0573 262.763 19.1413 262.599 19.3093C262.436 19.4773 262.354 19.7153 262.354 20.0233V22.3333H261.829ZM265.903 22.4173C265.553 22.4173 265.235 22.3333 264.951 22.1653C264.671 21.9926 264.449 21.7569 264.286 21.4583C264.122 21.1596 264.041 20.8213 264.041 20.4433C264.041 20.0653 264.12 19.7316 264.279 19.4423C264.437 19.1483 264.652 18.9173 264.923 18.7493C265.198 18.5813 265.506 18.4973 265.847 18.4973C266.117 18.4973 266.358 18.5486 266.568 18.6513C266.782 18.7493 266.964 18.8846 267.114 19.0573C267.263 19.2253 267.377 19.4166 267.457 19.6313C267.536 19.8413 267.576 20.0583 267.576 20.2823C267.576 20.3289 267.573 20.3826 267.569 20.4433C267.564 20.4993 267.557 20.5576 267.548 20.6183H264.377V20.1283H267.247L266.995 20.3383C267.037 20.0816 267.006 19.8529 266.904 19.6523C266.806 19.4469 266.663 19.2859 266.477 19.1693C266.29 19.0479 266.08 18.9873 265.847 18.9873C265.613 18.9873 265.396 19.0479 265.196 19.1693C265 19.2906 264.846 19.4609 264.734 19.6803C264.622 19.8949 264.577 20.1516 264.601 20.4503C264.577 20.7489 264.624 21.0103 264.741 21.2343C264.862 21.4536 265.025 21.6239 265.231 21.7453C265.441 21.8666 265.665 21.9273 265.903 21.9273C266.178 21.9273 266.409 21.8619 266.596 21.7313C266.782 21.6006 266.934 21.4373 267.051 21.2413L267.499 21.4793C267.424 21.6473 267.31 21.8036 267.156 21.9483C267.002 22.0883 266.817 22.2026 266.603 22.2913C266.393 22.3753 266.159 22.4173 265.903 22.4173ZM268.501 22.3333V17.0343H269.026V19.3093L268.907 19.2813C269.001 19.0386 269.152 18.8473 269.362 18.7073C269.577 18.5673 269.824 18.4973 270.104 18.4973C270.37 18.4973 270.608 18.5579 270.818 18.6793C271.033 18.8006 271.201 18.9686 271.322 19.1833C271.448 19.3933 271.511 19.6313 271.511 19.8973V22.3333H270.986V20.1003C270.986 19.8716 270.944 19.6779 270.86 19.5193C270.776 19.3606 270.66 19.2393 270.51 19.1553C270.366 19.0666 270.2 19.0223 270.013 19.0223C269.827 19.0223 269.659 19.0666 269.509 19.1553C269.36 19.2393 269.241 19.3629 269.152 19.5263C269.068 19.6849 269.026 19.8763 269.026 20.1003V22.3333H268.501ZM274.222 22.4173C273.872 22.4173 273.555 22.3333 273.27 22.1653C272.99 21.9926 272.768 21.7569 272.605 21.4583C272.442 21.1596 272.36 20.8213 272.36 20.4433C272.36 20.0653 272.439 19.7316 272.598 19.4423C272.757 19.1483 272.971 18.9173 273.242 18.7493C273.517 18.5813 273.825 18.4973 274.166 18.4973C274.437 18.4973 274.677 18.5486 274.887 18.6513C275.102 18.7493 275.284 18.8846 275.433 19.0573C275.582 19.2253 275.697 19.4166 275.776 19.6313C275.855 19.8413 275.895 20.0583 275.895 20.2823C275.895 20.3289 275.893 20.3826 275.888 20.4433C275.883 20.4993 275.876 20.5576 275.867 20.6183H272.696V20.1283H275.566L275.314 20.3383C275.356 20.0816 275.326 19.8529 275.223 19.6523C275.125 19.4469 274.983 19.2859 274.796 19.1693C274.609 19.0479 274.399 18.9873 274.166 18.9873C273.933 18.9873 273.716 19.0479 273.515 19.1693C273.319 19.2906 273.165 19.4609 273.053 19.6803C272.941 19.8949 272.897 20.1516 272.92 20.4503C272.897 20.7489 272.943 21.0103 273.06 21.2343C273.181 21.4536 273.345 21.6239 273.55 21.7453C273.76 21.8666 273.984 21.9273 274.222 21.9273C274.497 21.9273 274.728 21.8619 274.915 21.7313C275.102 21.6006 275.253 21.4373 275.37 21.2413L275.818 21.4793C275.743 21.6473 275.629 21.8036 275.475 21.9483C275.321 22.0883 275.137 22.2026 274.922 22.2913C274.712 22.3753 274.479 22.4173 274.222 22.4173ZM276.821 22.3333V18.5813H277.346V19.3093L277.227 19.2813C277.32 19.0386 277.472 18.8473 277.682 18.7073C277.896 18.5673 278.144 18.4973 278.424 18.4973C278.69 18.4973 278.928 18.5579 279.138 18.6793C279.352 18.8006 279.52 18.9686 279.642 19.1833C279.768 19.3933 279.831 19.6313 279.831 19.8973V22.3333H279.306V20.1003C279.306 19.8716 279.264 19.6779 279.18 19.5193C279.1 19.3606 278.986 19.2393 278.837 19.1553C278.692 19.0666 278.524 19.0223 278.333 19.0223C278.141 19.0223 277.971 19.0666 277.822 19.1553C277.672 19.2393 277.556 19.3629 277.472 19.5263C277.388 19.6849 277.346 19.8763 277.346 20.1003V22.3333H276.821ZM282.135 22.4173C281.776 22.4173 281.461 22.3263 281.19 22.1443C280.92 21.9623 280.724 21.7149 280.602 21.4023L281.043 21.1923C281.151 21.4209 281.3 21.6029 281.491 21.7383C281.687 21.8736 281.902 21.9413 282.135 21.9413C282.359 21.9413 282.548 21.8876 282.702 21.7803C282.856 21.6683 282.933 21.5236 282.933 21.3463C282.933 21.2156 282.896 21.1129 282.821 21.0383C282.747 20.9589 282.66 20.8983 282.562 20.8563C282.464 20.8143 282.378 20.7839 282.303 20.7653L281.764 20.6113C281.419 20.5133 281.169 20.3756 281.015 20.1983C280.861 20.0209 280.784 19.8156 280.784 19.5823C280.784 19.3629 280.84 19.1716 280.952 19.0083C281.064 18.8449 281.216 18.7189 281.407 18.6303C281.599 18.5416 281.811 18.4973 282.044 18.4973C282.362 18.4973 282.649 18.5813 282.905 18.7493C283.167 18.9126 283.351 19.1413 283.458 19.4353L283.01 19.6453C282.917 19.4353 282.782 19.2719 282.604 19.1553C282.432 19.0339 282.238 18.9733 282.023 18.9733C281.813 18.9733 281.645 19.0269 281.519 19.1343C281.393 19.2416 281.33 19.3769 281.33 19.5403C281.33 19.6663 281.363 19.7666 281.428 19.8413C281.494 19.9159 281.568 19.9719 281.652 20.0093C281.741 20.0466 281.818 20.0746 281.883 20.0933L282.506 20.2753C282.81 20.3639 283.045 20.5016 283.213 20.6883C283.386 20.8749 283.472 21.0943 283.472 21.3463C283.472 21.5516 283.414 21.7359 283.297 21.8993C283.185 22.0626 283.029 22.1909 282.828 22.2843C282.628 22.3729 282.397 22.4173 282.135 22.4173ZM284.395 22.3333V18.5813H284.92V22.3333H284.395ZM284.395 17.8883V17.1183H284.92V17.8883H284.395ZM286.995 22.3333L285.532 18.5813H286.12L287.352 21.8713H287.163L288.402 18.5813H288.997L287.52 22.3333H286.995ZM291.25 22.4173C290.9 22.4173 290.583 22.3333 290.298 22.1653C290.018 21.9926 289.797 21.7569 289.633 21.4583C289.47 21.1596 289.388 20.8213 289.388 20.4433C289.388 20.0653 289.468 19.7316 289.626 19.4423C289.785 19.1483 290 18.9173 290.27 18.7493C290.546 18.5813 290.854 18.4973 291.194 18.4973C291.465 18.4973 291.705 18.5486 291.915 18.6513C292.13 18.7493 292.312 18.8846 292.461 19.0573C292.611 19.2253 292.725 19.4166 292.804 19.6313C292.884 19.8413 292.923 20.0583 292.923 20.2823C292.923 20.3289 292.921 20.3826 292.916 20.4433C292.912 20.4993 292.905 20.5576 292.895 20.6183H289.724V20.1283H292.594L292.342 20.3383C292.384 20.0816 292.354 19.8529 292.251 19.6523C292.153 19.4469 292.011 19.2859 291.824 19.1693C291.638 19.0479 291.428 18.9873 291.194 18.9873C290.961 18.9873 290.744 19.0479 290.543 19.1693C290.347 19.2906 290.193 19.4609 290.081 19.6803C289.969 19.8949 289.925 20.1516 289.948 20.4503C289.925 20.7489 289.972 21.0103 290.088 21.2343C290.21 21.4536 290.373 21.6239 290.578 21.7453C290.788 21.8666 291.012 21.9273 291.25 21.9273C291.526 21.9273 291.757 21.8619 291.943 21.7313C292.13 21.6006 292.282 21.4373 292.398 21.2413L292.846 21.4793C292.772 21.6473 292.657 21.8036 292.503 21.9483C292.349 22.0883 292.165 22.2026 291.95 22.2913C291.74 22.3753 291.507 22.4173 291.25 22.4173ZM294.031 22.3333V21.5633H294.591V22.3333H294.031Z" fill="white"/>
<defs>
<linearGradient id="paint0_linear_14876_3141" x1="22.3139" y1="25.2069" x2="0.487302" y2="9.60346" gradientUnits="userSpaceOnUse">
<stop stop-color="#8B4FDD"/>
<stop offset="1" stop-color="#12B886"/>
</linearGradient>
<linearGradient id="paint1_linear_14876_3141" x1="22.9117" y1="26.5832" x2="13.2095" y2="13.5321" gradientUnits="userSpaceOnUse">
<stop stop-color="#8B4FDD"/>
<stop offset="1" stop-color="#12B886"/>
</linearGradient>
<linearGradient id="paint2_linear_14876_3141" x1="27.8" y1="20.7093" x2="11.1763" y2="10.858" gradientUnits="userSpaceOnUse">
<stop stop-color="#8B4FDD"/>
<stop offset="1" stop-color="#12B886"/>
</linearGradient>
<linearGradient id="paint3_linear_14876_3141" x1="15.2037" y1="20.7093" x2="-1.42369" y2="10.8513" gradientUnits="userSpaceOnUse">
<stop stop-color="#8B4FDD"/>
<stop offset="1" stop-color="#12B886"/>
</linearGradient>
</defs>
</svg>
