<svg width="220" height="30" viewBox="0 0 220 30" fill="none" xmlns="http://www.w3.org/2000/svg">
<path d="M25.5764 23.8501L24.2827 21.6558H5.69116L15.0014 5.4359L12.5704 1.16675H9.4332C8.75955 1.16827 8.09837 1.34982 7.51721 1.69284C6.93602 2.03587 6.45571 2.52808 6.12527 3.11919L0.49918 13.1145C0.172054 13.6915 0 14.3443 0 15.0087C0 15.6731 0.172054 16.3259 0.49918 16.9029L4.43802 23.8967L6.12527 26.8924C6.41447 27.4062 6.81788 27.8457 7.30391 28.1763C7.78994 28.5069 8.34538 28.7198 8.92674 28.7982C9.09358 28.8217 9.26185 28.8334 9.43031 28.8332H20.5581C21.2315 28.8336 21.893 28.6541 22.4751 28.3132C23.0572 27.9722 23.5392 27.482 23.8718 26.8924L25.5475 23.8967L25.5764 23.8501Z" fill="url(#paint0_linear_14859_5819)"/>
<path d="M25.6081 23.8501L25.5763 23.9054L23.8977 26.8895C23.5665 27.479 23.0857 27.9694 22.5045 28.3104C21.9232 28.6514 21.2625 28.8308 20.5898 28.8302H9.46203C9.29356 28.8304 9.1253 28.8187 8.95846 28.7953C8.37614 28.7175 7.81963 28.5049 7.33256 28.1743C6.84552 27.8436 6.44115 27.4039 6.1512 26.8895L4.46973 23.8967L5.75471 21.6587L5.82127 21.6179L12.0609 17.8295C13.0246 17.2001 13.7453 16.83 14.4283 16.7134C14.4437 16.712 14.4592 16.712 14.4746 16.7134L14.6077 16.696L14.8392 16.6785H14.9781C15.0895 16.6815 15.2006 16.6903 15.311 16.7047C16.02 16.8009 16.7783 17.1593 17.8143 17.7596L24.2797 21.6324L24.3174 21.6557L25.6081 23.8501Z" fill="url(#paint1_linear_14859_5819)"/>
<path d="M29.525 16.9029L25.5803 23.8967L25.6121 23.8413L24.3156 21.6558L15.0545 5.4155V5.4359L12.6032 1.16675H20.5938C21.2678 1.16866 21.9292 1.35034 22.5108 1.6933C23.0923 2.03626 23.5733 2.52825 23.9046 3.11919L29.525 13.1145C29.8506 13.6919 30.0219 14.3446 30.0219 15.0087C30.0219 15.6728 29.8506 16.3255 29.525 16.9029Z" fill="url(#paint2_linear_14859_5819)"/>
<path d="M0.49918 16.9029L4.4467 23.8967L4.41487 23.8413L5.70852 21.647L14.9696 5.40676V5.42716L17.4267 1.16675H9.4332C8.75955 1.16827 8.09837 1.34982 7.51721 1.69284C6.93602 2.03587 6.45571 2.52808 6.12527 3.11919L0.49918 13.1145C0.172054 13.6915 0 14.3444 0 15.0087C0 15.6731 0.172054 16.3259 0.49918 16.9029Z" fill="url(#paint3_linear_14859_5819)"/>
<path d="M38.9796 23.7021L44.9992 6.68374H48.1712L54.1909 23.7021H50.9032L49.8613 20.6714H43.3091L42.2672 23.7021H38.9796ZM46.5968 11.1831L44.3741 17.6407H48.8194L46.5968 11.1831ZM57.7054 23.7021L52.5424 10.0641H55.8069L59.303 19.669L62.7296 10.0641H65.9478L60.8542 23.7021H57.7054ZM72.7712 23.9818C68.5111 23.9818 65.617 20.8579 65.617 16.918C65.617 12.9316 68.6963 9.78434 72.6554 9.78434C76.684 9.78434 79.6243 12.7684 79.6243 16.8015V17.9904H68.6037C69.0436 19.9254 70.5485 21.2076 72.7712 21.2076C74.5308 21.2076 75.8736 20.2751 76.5219 18.8064L79.0918 20.2984C77.911 22.5131 75.8273 23.9818 72.7712 23.9818ZM72.6554 12.5586C70.78 12.5586 69.3214 13.6776 68.7657 15.3561H76.4524C75.9894 13.5144 74.6002 12.5586 72.6554 12.5586ZM80.6312 22.0935C80.6312 20.9512 81.3489 20.1818 82.5297 20.1818C83.7105 20.1818 84.4051 20.9512 84.4051 22.0935C84.4051 23.2125 83.6873 23.9818 82.5066 23.9818C81.3258 23.9818 80.6312 23.2125 80.6312 22.0935ZM92.046 23.9818C88.7815 23.9818 85.3781 21.3708 85.3781 16.8947C85.3781 12.3721 88.6657 9.78434 92.0923 9.78434C93.8751 9.78434 95.4495 10.507 96.445 11.696V10.0641H99.5706V23.7021H96.445V21.9303C95.4495 23.2125 93.8288 23.9818 92.046 23.9818ZM92.5554 21.091C94.8938 21.091 96.6071 19.2027 96.6071 16.8481C96.6071 14.5168 94.8938 12.6518 92.5554 12.6518C90.2401 12.6518 88.4574 14.4935 88.4574 16.8481C88.4574 19.226 90.2401 21.091 92.5554 21.091ZM101.351 23.7021V10.0641H104.5V23.7021H101.351ZM100.957 6.73037C100.957 5.54141 101.722 4.74878 102.925 4.74878C104.153 4.74878 104.893 5.54141 104.893 6.73037C104.893 7.91932 104.153 8.68864 102.925 8.68864C101.652 8.68864 100.957 7.91932 100.957 6.73037Z" fill="white"/>
<rect x="117.893" y="11.9434" width="1.34806" height="6.11331" fill="white"/>
<path d="M138.578 11.811C139.238 11.811 139.925 11.778 140.639 11.712L140.459 12.63C139.739 12.69 139.097 12.72 138.533 12.72L138.047 12.711C137.579 12.699 137.201 12.624 136.913 12.486C136.625 12.348 136.364 12.111 136.13 11.775L135.383 12.711L134.789 12.054L135.005 11.784C134.675 12.066 134.36 12.321 134.06 12.549C133.982 12.615 133.892 12.681 133.79 12.747L133.376 12.063C133.466 12.003 133.52 11.937 133.538 11.865C133.562 11.793 133.574 11.682 133.574 11.532V9.993H132.836V9.111H133.574V8.22H133.16V7.608L133.007 7.833L132.449 7.14C132.707 6.762 132.947 6.351 133.169 5.907C133.391 5.457 133.559 5.031 133.673 4.629L134.501 4.809C134.429 5.067 134.321 5.373 134.177 5.727H135.257V6.591H133.763C133.691 6.735 133.547 6.987 133.331 7.347H134.969V8.22H134.411V9.111H135.275V9.993H134.411V11.271L134.978 10.767L135.221 11.532L135.698 10.947V8.679H135.248V7.725H136.526V10.938C136.688 11.244 136.895 11.463 137.147 11.595C137.399 11.721 137.735 11.79 138.155 11.802L138.578 11.811ZM136.94 8.031C137.084 7.695 137.249 7.221 137.435 6.609H136.841V5.727H137.696C137.81 5.325 137.894 4.977 137.948 4.683L138.794 4.818L138.569 5.727H140.378V6.609H138.308C138.128 7.203 137.966 7.668 137.822 8.004H138.29V6.861L139.109 6.915V8.004H140.198V8.868H139.109V9.777H140.459V10.65H139.109V11.667H138.29V10.65H136.733V9.777H138.29V8.868H136.94V8.031ZM135.986 7.014C135.914 6.768 135.803 6.462 135.653 6.096C135.503 5.73 135.371 5.43 135.257 5.196L136.022 4.872C136.13 5.082 136.259 5.37 136.409 5.736C136.559 6.102 136.67 6.402 136.742 6.636L135.986 7.014ZM146.249 8.139V11.613H149.93V12.558H142.028V11.613H145.187V4.737L146.249 4.782V7.176H149.381V8.139H146.249ZM155.468 9.975H153.983V11.973C153.983 12.213 153.956 12.39 153.902 12.504C153.854 12.618 153.764 12.699 153.632 12.747C153.5 12.801 153.287 12.846 152.993 12.882L152.651 12.927L152.345 11.973L152.687 11.937C152.831 11.919 152.93 11.883 152.984 11.829C153.044 11.769 153.074 11.667 153.074 11.523V9.975H151.481V9.111H153.074V8.382H151.382V7.527H152.291L152.183 6.375H151.607V5.529H153.029L152.831 4.8L153.731 4.683C153.833 4.983 153.917 5.265 153.983 5.529H155.405V6.375H154.91C154.874 6.645 154.832 7.029 154.784 7.527H155.54V8.382H153.983V9.111H155.468V9.975ZM159.266 7.644V8.571H158.456V12.891H157.502V8.571H156.746C156.746 9.345 156.722 9.972 156.674 10.452C156.632 10.926 156.545 11.358 156.413 11.748C156.287 12.132 156.092 12.537 155.828 12.963L154.928 12.513C155.186 12.141 155.378 11.778 155.504 11.424C155.63 11.064 155.714 10.656 155.756 10.2C155.804 9.738 155.828 9.123 155.828 8.355V5.475C156.374 5.421 156.914 5.34 157.448 5.232C157.988 5.124 158.441 4.995 158.807 4.845L159.113 5.808C158.795 5.928 158.42 6.042 157.988 6.15C157.556 6.252 157.142 6.324 156.746 6.366V7.644H159.266ZM153.038 6.375C153.092 6.795 153.131 7.179 153.155 7.527H153.911C153.977 7.095 154.022 6.711 154.046 6.375H153.038ZM154.649 10.164C155.021 10.608 155.294 10.98 155.468 11.28L154.811 11.856C154.571 11.406 154.307 10.989 154.019 10.605L154.649 10.164ZM152.813 10.506C152.693 10.818 152.537 11.154 152.345 11.514C152.159 11.868 151.973 12.174 151.787 12.432L151.076 12.009C151.262 11.751 151.442 11.46 151.616 11.136C151.796 10.812 151.94 10.5 152.048 10.2L152.813 10.506ZM165.084 9.885V11.784H168.306V12.675H160.881V11.784H164.103V9.885H162.438L162.6 10.056C163.068 10.536 163.377 10.899 163.527 11.145L162.897 11.748C162.759 11.556 162.579 11.334 162.357 11.082C162.141 10.824 161.949 10.608 161.781 10.434L162.384 9.885H161.349V9.003H164.103V8.175H162.339V7.59C161.859 7.878 161.397 8.124 160.953 8.328L160.539 7.392C161.391 7.032 162.117 6.633 162.717 6.195C163.317 5.757 163.812 5.262 164.202 4.71H165.03C165.792 5.778 166.998 6.648 168.648 7.32L168.261 8.274C167.733 8.046 167.265 7.809 166.857 7.563V8.175H165.084V9.003H167.838V9.885H166.866L167.442 10.326C167.184 10.68 166.968 10.968 166.794 11.19C166.626 11.412 166.455 11.607 166.281 11.775L165.606 11.226C165.792 11.034 165.987 10.815 166.191 10.569C166.395 10.323 166.563 10.095 166.695 9.885H165.084ZM162.834 7.275H166.407C165.621 6.747 165.021 6.201 164.607 5.637C164.199 6.207 163.608 6.753 162.834 7.275ZM177.228 12.873C177.204 12.711 177.162 12.483 177.102 12.189C176.316 12.279 175.359 12.369 174.231 12.459L174.15 11.586C174.6 11.568 175.041 11.541 175.473 11.505V9.867H174.312V6.123H175.473V4.755L176.292 4.8V6.123H177.471V9.867H176.292V11.433C176.556 11.409 176.754 11.388 176.886 11.37C176.778 10.98 176.673 10.662 176.571 10.416L177.363 10.164C177.465 10.452 177.588 10.848 177.732 11.352C177.876 11.856 177.969 12.237 178.011 12.495L177.228 12.873ZM174.105 5.934H169.938V5.169H174.105V5.934ZM170.424 8.229V6.33H173.637V8.229H170.424ZM175.086 6.96V9.03H175.473V6.96H175.086ZM176.706 9.03V6.96H176.292V9.03H176.706ZM171.207 7.5H172.854V7.05H171.207V7.5ZM170.1 12.747V8.607H173.988V12.009C173.988 12.315 173.925 12.525 173.799 12.639C173.679 12.753 173.454 12.822 173.124 12.846L172.746 12.873L172.521 12.072L172.863 12.045C172.989 12.033 173.073 12.003 173.115 11.955C173.163 11.907 173.187 11.814 173.187 11.676V9.345H170.883V12.747H170.1ZM173.043 11.217H172.431V12.603H171.666V11.217H171.018V10.488H171.405C171.267 10.188 171.126 9.924 170.982 9.696L171.531 9.399C171.675 9.627 171.828 9.915 171.99 10.263L171.567 10.488H171.963C172.185 10.068 172.35 9.714 172.458 9.426L173.079 9.687L172.683 10.488H173.043V11.217ZM181.263 8.202V9.12H182.289V9.984H181.263V11.289L182.163 10.785L182.271 11.775C181.905 11.937 181.47 12.171 180.966 12.477L180.759 12.603L180.507 12.756L180.075 11.946C180.207 11.892 180.288 11.832 180.318 11.766C180.348 11.694 180.363 11.586 180.363 11.442V9.984H179.319V9.12H180.363V8.202H179.769V7.806L179.58 8.04L179.004 7.311C179.31 6.903 179.601 6.462 179.877 5.988C180.153 5.508 180.363 5.049 180.507 4.611L181.326 4.863C181.236 5.163 181.128 5.454 181.002 5.736H182.46V6.591H180.579C180.399 6.897 180.243 7.146 180.111 7.338H182.19V8.202H181.263ZM187.149 10.974C187.113 11.238 187.038 11.532 186.924 11.856C186.786 12.258 186.621 12.537 186.429 12.693C186.237 12.855 186.015 12.936 185.763 12.936C185.511 12.936 185.283 12.858 185.079 12.702C184.875 12.552 184.644 12.267 184.386 11.847L184.224 11.559C183.774 11.823 183.285 12.066 182.757 12.288L182.397 11.406C182.931 11.184 183.432 10.941 183.9 10.677C183.762 10.185 183.651 9.669 183.567 9.129L182.397 9.291L182.325 8.436L183.45 8.292C183.426 8.1 183.396 7.821 183.36 7.455L182.451 7.563L182.379 6.726L183.288 6.618L183.18 4.728L184.071 4.746C184.095 5.394 184.125 5.982 184.161 6.51L185.484 6.357C185.37 6.195 185.22 6.015 185.034 5.817C184.848 5.613 184.674 5.439 184.512 5.295L185.079 4.746C185.325 4.962 185.517 5.139 185.655 5.277C185.793 5.409 185.925 5.556 186.051 5.718L185.502 6.348L186.744 6.204L186.825 7.05L184.233 7.356L184.314 8.175L186.915 7.833L187.005 8.661L184.44 9.012C184.512 9.462 184.596 9.843 184.692 10.155C185.238 9.753 185.709 9.306 186.105 8.814L186.663 9.435C186.141 10.059 185.589 10.593 185.007 11.037C185.043 11.121 185.103 11.235 185.187 11.379C185.289 11.553 185.391 11.682 185.493 11.766C185.595 11.844 185.685 11.883 185.763 11.883C185.847 11.883 185.922 11.844 185.988 11.766C186.06 11.688 186.132 11.541 186.204 11.325L186.258 11.118C186.276 11.046 186.297 10.959 186.321 10.857C186.345 10.749 186.369 10.632 186.393 10.506L187.149 10.974ZM196.414 11.064C196.396 11.424 196.372 11.682 196.342 11.838C196.288 12.084 196.213 12.267 196.117 12.387C196.021 12.513 195.874 12.603 195.676 12.657C195.484 12.711 195.205 12.747 194.839 12.765C194.161 12.801 193.486 12.819 192.814 12.819C192.13 12.819 191.452 12.801 190.78 12.765C190.438 12.747 190.168 12.702 189.97 12.63C189.778 12.558 189.634 12.432 189.538 12.252C189.448 12.078 189.403 11.826 189.403 11.496V8.157L189.061 8.535L188.305 7.788C188.755 7.308 189.163 6.789 189.529 6.231C189.901 5.673 190.177 5.145 190.357 4.647L191.374 4.971C191.278 5.211 191.203 5.388 191.149 5.502H195.622C195.604 6.396 195.589 7.254 195.577 8.076C195.565 8.892 195.556 9.489 195.55 9.867C195.544 10.197 195.502 10.449 195.424 10.623C195.346 10.791 195.208 10.917 195.01 11.001C194.818 11.085 194.527 11.145 194.137 11.181L193.606 11.235L193.291 10.263L193.876 10.209C194.116 10.185 194.275 10.161 194.353 10.137C194.437 10.107 194.491 10.056 194.515 9.984C194.545 9.906 194.566 9.765 194.578 9.561C194.584 9.459 194.596 8.997 194.614 8.175C194.638 7.353 194.653 6.774 194.659 6.438H190.654C190.468 6.744 190.297 7.008 190.141 7.23H193.48V10.245H190.33V11.253C190.33 11.433 190.348 11.562 190.384 11.64C190.426 11.718 190.492 11.772 190.582 11.802C190.678 11.826 190.831 11.844 191.041 11.856C191.719 11.886 192.334 11.901 192.886 11.901C193.432 11.901 194.041 11.886 194.713 11.856C194.899 11.844 195.037 11.823 195.127 11.793C195.217 11.763 195.28 11.712 195.316 11.64C195.358 11.562 195.391 11.442 195.415 11.28C195.439 11.04 195.451 10.866 195.451 10.758L196.414 11.064ZM192.553 9.3V8.175H190.33V9.3H192.553ZM133.61 21.04V22.056H133.17V20.624H136.01C135.908 20.2293 135.81 19.9067 135.714 19.656L136.146 19.552C136.268 19.856 136.38 20.2133 136.482 20.624H139.202V22.064H138.762V21.04H133.61ZM138.106 23.152C137.94 23.6053 137.764 23.992 137.578 24.312C137.391 24.6267 137.167 24.9067 136.906 25.152C137.796 25.5413 138.61 25.9333 139.346 26.328L139.146 26.76C138.41 26.344 137.538 25.912 136.53 25.464C136.146 25.7413 135.658 25.984 135.066 26.192C134.474 26.4053 133.722 26.608 132.81 26.8L132.658 26.368C133.484 26.2133 134.17 26.048 134.714 25.872C135.263 25.696 135.716 25.4933 136.074 25.264C135.236 24.9067 134.514 24.6213 133.906 24.408C134.124 24.0773 134.372 23.6587 134.65 23.152H132.658V22.736H134.866C135.122 22.2293 135.332 21.776 135.498 21.376L135.938 21.528C135.772 21.9227 135.588 22.3253 135.386 22.736H139.682V23.152H138.106ZM136.482 24.968C136.732 24.744 136.943 24.488 137.114 24.2C137.29 23.912 137.45 23.5627 137.594 23.152H135.17C134.94 23.5893 134.738 23.9413 134.562 24.208C135.052 24.3733 135.692 24.6267 136.482 24.968ZM144.237 19.656C144.578 20.1947 145.042 20.704 145.629 21.184C146.221 21.6587 146.903 22.0907 147.677 22.48L147.445 22.88C146.714 22.48 146.047 22.0427 145.445 21.568C144.847 21.088 144.378 20.6 144.037 20.104C143.679 20.6213 143.221 21.1067 142.661 21.56C142.101 22.0133 141.423 22.4533 140.629 22.88L140.405 22.464C141.226 22.048 141.914 21.6133 142.469 21.16C143.029 20.7013 143.485 20.2 143.837 19.656H144.237ZM146.605 24.52H144.261V25.992H147.285V26.4H140.789V25.992H143.813V24.52H141.477V24.096H143.813V22.76H141.677V22.336H146.397V22.76H144.261V24.096H146.605V24.52ZM148.992 25.296L149.312 25.056C149.546 25.2107 149.789 25.4187 150.04 25.68C150.29 25.936 150.509 26.2 150.696 26.472L150.256 26.752C150.122 26.5067 149.93 26.2427 149.68 25.96C149.429 25.6773 149.2 25.456 148.992 25.296ZM163.283 22.56H158.835C158.691 22.9653 158.549 23.3227 158.411 23.632H162.171V24.08C161.659 24.7253 161.128 25.296 160.579 25.792C161.181 26.048 161.68 26.264 162.075 26.44L161.915 26.88C161.227 26.5653 160.448 26.2267 159.579 25.864C158.709 25.496 157.987 25.208 157.411 25L157.579 24.6C158.208 24.8293 159.053 25.1627 160.115 25.6C160.387 25.3653 160.656 25.1093 160.923 24.832C161.195 24.5493 161.419 24.2907 161.595 24.056H157.891V23.68C158.024 23.408 158.179 23.0347 158.355 22.56H156.291V22.136H158.499C158.605 21.8107 158.717 21.4347 158.835 21.008H156.899V20.592H158.947C159.064 20.1013 159.144 19.7467 159.187 19.528L159.635 19.6C159.555 19.9893 159.48 20.32 159.411 20.592H162.667V21.008H159.307C159.189 21.4347 159.077 21.8107 158.971 22.136H163.283V22.56ZM168.774 19.672V25.912H171.166V26.32H164.19V25.912H166.59V19.656L167.046 19.68V25.912H168.31V19.648L168.774 19.672ZM170.838 21.152C170.694 21.6373 170.494 22.208 170.238 22.864C169.982 23.5147 169.742 24.064 169.518 24.512L169.102 24.328C169.331 23.8907 169.574 23.3493 169.83 22.704C170.086 22.0533 170.28 21.4853 170.414 21L170.838 21.152ZM165.782 24.48C165.638 24.0053 165.422 23.4053 165.134 22.68C164.851 21.9547 164.638 21.4587 164.494 21.192L164.902 21.016C165.035 21.2667 165.254 21.7707 165.558 22.528C165.867 23.2853 166.086 23.872 166.214 24.288L165.782 24.48ZM172.617 25.296L172.937 25.056C173.171 25.2107 173.414 25.4187 173.665 25.68C173.915 25.936 174.134 26.2 174.321 26.472L173.881 26.752C173.747 26.5067 173.555 26.2427 173.305 25.96C173.054 25.6773 172.825 25.456 172.617 25.296ZM181.052 19.88H185.788V22.032H181.052V19.88ZM185.372 20.8V20.232H181.468V20.8H185.372ZM181.468 21.112V21.68H185.372V21.112H181.468ZM179.868 22.568H186.964V22.92H183.164V25.512L183.708 25.416L183.724 25.608L183.74 25.776L183.164 25.872V26.808H182.772V25.928L181.412 26.12C181.113 26.1573 180.644 26.224 180.004 26.32L179.948 25.944L180.764 25.848V22.92H179.868V22.568ZM181.172 23.616H182.772V22.92H181.172V23.616ZM186.316 23.864C186.065 24.488 185.724 25.0267 185.292 25.48C185.681 25.8053 186.209 26.0933 186.876 26.344L186.692 26.704C185.998 26.432 185.438 26.112 185.012 25.744C184.628 26.0907 184.145 26.4027 183.564 26.68L183.364 26.336C183.908 26.096 184.366 25.8133 184.74 25.488C184.334 25.072 184.02 24.528 183.796 23.856H183.516V23.512H186.316V23.864ZM184.188 23.856C184.396 24.4213 184.67 24.88 185.012 25.232C185.385 24.8427 185.676 24.384 185.884 23.856H184.188ZM181.172 24.632H182.772V23.936H181.172V24.632ZM181.172 25.792C181.588 25.7387 182.046 25.6773 182.548 25.608L182.772 25.576V24.96H181.172V25.792ZM189.279 26.752H188.855V19.592L189.279 19.624V26.752ZM192.383 23.736C192.575 24.328 192.876 24.8427 193.287 25.28C193.703 25.7173 194.244 26.0827 194.911 26.376L194.687 26.768C193.423 26.176 192.567 25.3173 192.119 24.192C191.98 24.704 191.721 25.168 191.343 25.584C190.969 25.9947 190.439 26.4 189.751 26.8L189.503 26.44C190.201 26.0453 190.729 25.6347 191.087 25.208C191.449 24.776 191.679 24.2853 191.775 23.736H189.855V23.312H191.831L191.839 23.048V21.336H190.431V20.912H191.847V19.6L192.279 19.616V20.912H193.999V23.312H194.815V23.736H192.383ZM190.175 22.592C190.084 22.3893 189.953 22.1333 189.783 21.824C189.612 21.5147 189.46 21.2667 189.327 21.08L189.639 20.864C189.767 21.0453 189.921 21.2933 190.103 21.608C190.289 21.9173 190.425 22.16 190.511 22.336L190.175 22.592ZM187.623 23.704C187.708 23.384 187.796 22.9467 187.887 22.392C187.977 21.8373 188.049 21.3333 188.103 20.88L188.503 20.936C188.444 21.3787 188.369 21.88 188.279 22.44C188.188 22.9947 188.105 23.4427 188.031 23.784L187.623 23.704ZM192.263 23.312H193.575V21.336H192.271V23.024L192.263 23.312ZM196.242 25.296L196.562 25.056C196.796 25.2107 197.039 25.4187 197.29 25.68C197.54 25.936 197.759 26.2 197.946 26.472L197.506 26.752C197.372 26.5067 197.18 26.2427 196.93 25.96C196.679 25.6773 196.45 25.456 196.242 25.296ZM204.677 19.88H209.413V22.032H204.677V19.88ZM208.997 20.8V20.232H205.093V20.8H208.997ZM205.093 21.112V21.68H208.997V21.112H205.093ZM203.493 22.568H210.589V22.92H206.789V25.512L207.333 25.416L207.349 25.608L207.365 25.776L206.789 25.872V26.808H206.397V25.928L205.037 26.12C204.738 26.1573 204.269 26.224 203.629 26.32L203.573 25.944L204.389 25.848V22.92H203.493V22.568ZM204.797 23.616H206.397V22.92H204.797V23.616ZM209.941 23.864C209.69 24.488 209.349 25.0267 208.917 25.48C209.306 25.8053 209.834 26.0933 210.501 26.344L210.317 26.704C209.623 26.432 209.063 26.112 208.637 25.744C208.253 26.0907 207.77 26.4027 207.189 26.68L206.989 26.336C207.533 26.096 207.991 25.8133 208.365 25.488C207.959 25.072 207.645 24.528 207.421 23.856H207.141V23.512H209.941V23.864ZM207.813 23.856C208.021 24.4213 208.295 24.88 208.637 25.232C209.01 24.8427 209.301 24.384 209.509 23.856H207.813ZM204.797 24.632H206.397V23.936H204.797V24.632ZM204.797 25.792C205.213 25.7387 205.671 25.6773 206.173 25.608L206.397 25.576V24.96H204.797V25.792ZM215.112 19.656C215.453 20.1947 215.917 20.704 216.504 21.184C217.096 21.6587 217.778 22.0907 218.552 22.48L218.32 22.88C217.589 22.48 216.922 22.0427 216.32 21.568C215.722 21.088 215.253 20.6 214.912 20.104C214.554 20.6213 214.096 21.1067 213.536 21.56C212.976 22.0133 212.298 22.4533 211.504 22.88L211.28 22.464C212.101 22.048 212.789 21.6133 213.344 21.16C213.904 20.7013 214.36 20.2 214.712 19.656H215.112ZM217.48 24.52H215.136V25.992H218.16V26.4H211.664V25.992H214.688V24.52H212.352V24.096H214.688V22.76H212.552V22.336H217.272V22.76H215.136V24.096H217.48V24.52Z" fill="white"/>
<defs>
<linearGradient id="paint0_linear_14859_5819" x1="22.3139" y1="26.3737" x2="0.487302" y2="10.7702" gradientUnits="userSpaceOnUse">
<stop stop-color="#8B4FDD"/>
<stop offset="1" stop-color="#12B886"/>
</linearGradient>
<linearGradient id="paint1_linear_14859_5819" x1="22.9117" y1="27.75" x2="13.2095" y2="14.6988" gradientUnits="userSpaceOnUse">
<stop stop-color="#8B4FDD"/>
<stop offset="1" stop-color="#12B886"/>
</linearGradient>
<linearGradient id="paint2_linear_14859_5819" x1="27.8" y1="21.876" x2="11.1763" y2="12.0247" gradientUnits="userSpaceOnUse">
<stop stop-color="#8B4FDD"/>
<stop offset="1" stop-color="#12B886"/>
</linearGradient>
<linearGradient id="paint3_linear_14859_5819" x1="15.2037" y1="21.876" x2="-1.42369" y2="12.018" gradientUnits="userSpaceOnUse">
<stop stop-color="#8B4FDD"/>
<stop offset="1" stop-color="#12B886"/>
</linearGradient>
</defs>
</svg>
